<?xml version="1.0" encoding="utf-8" standalone="no"?>
<!DOCTYPE svg PUBLIC "-//W3C//DTD SVG 1.1//EN"
  "http://www.w3.org/Graphics/SVG/1.1/DTD/svg11.dtd">
<!-- Created with matplotlib (https://matplotlib.org/) -->
<svg height="288pt" version="1.1" viewBox="0 0 432 288" width="432pt" xmlns="http://www.w3.org/2000/svg" xmlns:xlink="http://www.w3.org/1999/xlink">
 <metadata>
  <rdf:RDF xmlns:cc="http://creativecommons.org/ns#" xmlns:dc="http://purl.org/dc/elements/1.1/" xmlns:rdf="http://www.w3.org/1999/02/22-rdf-syntax-ns#">
   <cc:Work>
    <dc:type rdf:resource="http://purl.org/dc/dcmitype/StillImage"/>
    <dc:date>2021-12-02T15:47:40.827938</dc:date>
    <dc:format>image/svg+xml</dc:format>
    <dc:creator>
     <cc:Agent>
      <dc:title>Matplotlib v3.3.2, https://matplotlib.org/</dc:title>
     </cc:Agent>
    </dc:creator>
   </cc:Work>
  </rdf:RDF>
 </metadata>
 <defs>
  <style type="text/css">*{stroke-linecap:butt;stroke-linejoin:round;}</style>
 </defs>
 <g id="figure_1">
  <g id="patch_1">
   <path d="M 0 288 
L 432 288 
L 432 0 
L 0 0 
z
" style="fill:none;"/>
  </g>
  <g id="axes_1">
   <g id="patch_2">
    <path d="M 54 252 
L 388.8 252 
L 388.8 34.56 
L 54 34.56 
z
" style="fill:#ffffff;"/>
   </g>
   <g id="matplotlib.axis_1">
    <g id="xtick_1">
     <g id="line2d_1">
      <defs>
       <path d="M 0 0 
L 0 3.5 
" id="m61db23ac27" style="stroke:#000000;stroke-width:0.8;"/>
      </defs>
      <g>
       <use style="stroke:#000000;stroke-width:0.8;" x="69.218182" xlink:href="#m61db23ac27" y="252"/>
      </g>
     </g>
     <g id="text_1">
      <!-- 0 -->
      <g transform="translate(66.036932 266.598437)scale(0.1 -0.1)">
       <defs>
        <path d="M 31.78125 66.40625 
Q 24.171875 66.40625 20.328125 58.90625 
Q 16.5 51.421875 16.5 36.375 
Q 16.5 21.390625 20.328125 13.890625 
Q 24.171875 6.390625 31.78125 6.390625 
Q 39.453125 6.390625 43.28125 13.890625 
Q 47.125 21.390625 47.125 36.375 
Q 47.125 51.421875 43.28125 58.90625 
Q 39.453125 66.40625 31.78125 66.40625 
z
M 31.78125 74.21875 
Q 44.046875 74.21875 50.515625 64.515625 
Q 56.984375 54.828125 56.984375 36.375 
Q 56.984375 17.96875 50.515625 8.265625 
Q 44.046875 -1.421875 31.78125 -1.421875 
Q 19.53125 -1.421875 13.0625 8.265625 
Q 6.59375 17.96875 6.59375 36.375 
Q 6.59375 54.828125 13.0625 64.515625 
Q 19.53125 74.21875 31.78125 74.21875 
z
" id="DejaVuSans-48"/>
       </defs>
       <use xlink:href="#DejaVuSans-48"/>
      </g>
     </g>
    </g>
    <g id="xtick_2">
     <g id="line2d_2">
      <g>
       <use style="stroke:#000000;stroke-width:0.8;" x="109.160916" xlink:href="#m61db23ac27" y="252"/>
      </g>
     </g>
     <g id="text_2">
      <!-- 250 -->
      <g transform="translate(99.617166 266.598437)scale(0.1 -0.1)">
       <defs>
        <path d="M 19.1875 8.296875 
L 53.609375 8.296875 
L 53.609375 0 
L 7.328125 0 
L 7.328125 8.296875 
Q 12.9375 14.109375 22.625 23.890625 
Q 32.328125 33.6875 34.8125 36.53125 
Q 39.546875 41.84375 41.421875 45.53125 
Q 43.3125 49.21875 43.3125 52.78125 
Q 43.3125 58.59375 39.234375 62.25 
Q 35.15625 65.921875 28.609375 65.921875 
Q 23.96875 65.921875 18.8125 64.3125 
Q 13.671875 62.703125 7.8125 59.421875 
L 7.8125 69.390625 
Q 13.765625 71.78125 18.9375 73 
Q 24.125 74.21875 28.421875 74.21875 
Q 39.75 74.21875 46.484375 68.546875 
Q 53.21875 62.890625 53.21875 53.421875 
Q 53.21875 48.921875 51.53125 44.890625 
Q 49.859375 40.875 45.40625 35.40625 
Q 44.1875 33.984375 37.640625 27.21875 
Q 31.109375 20.453125 19.1875 8.296875 
z
" id="DejaVuSans-50"/>
        <path d="M 10.796875 72.90625 
L 49.515625 72.90625 
L 49.515625 64.59375 
L 19.828125 64.59375 
L 19.828125 46.734375 
Q 21.96875 47.46875 24.109375 47.828125 
Q 26.265625 48.1875 28.421875 48.1875 
Q 40.625 48.1875 47.75 41.5 
Q 54.890625 34.8125 54.890625 23.390625 
Q 54.890625 11.625 47.5625 5.09375 
Q 40.234375 -1.421875 26.90625 -1.421875 
Q 22.3125 -1.421875 17.546875 -0.640625 
Q 12.796875 0.140625 7.71875 1.703125 
L 7.71875 11.625 
Q 12.109375 9.234375 16.796875 8.0625 
Q 21.484375 6.890625 26.703125 6.890625 
Q 35.15625 6.890625 40.078125 11.328125 
Q 45.015625 15.765625 45.015625 23.390625 
Q 45.015625 31 40.078125 35.4375 
Q 35.15625 39.890625 26.703125 39.890625 
Q 22.75 39.890625 18.8125 39.015625 
Q 14.890625 38.140625 10.796875 36.28125 
z
" id="DejaVuSans-53"/>
       </defs>
       <use xlink:href="#DejaVuSans-50"/>
       <use x="63.623047" xlink:href="#DejaVuSans-53"/>
       <use x="127.246094" xlink:href="#DejaVuSans-48"/>
      </g>
     </g>
    </g>
    <g id="xtick_3">
     <g id="line2d_3">
      <g>
       <use style="stroke:#000000;stroke-width:0.8;" x="149.103651" xlink:href="#m61db23ac27" y="252"/>
      </g>
     </g>
     <g id="text_3">
      <!-- 500 -->
      <g transform="translate(139.559901 266.598437)scale(0.1 -0.1)">
       <use xlink:href="#DejaVuSans-53"/>
       <use x="63.623047" xlink:href="#DejaVuSans-48"/>
       <use x="127.246094" xlink:href="#DejaVuSans-48"/>
      </g>
     </g>
    </g>
    <g id="xtick_4">
     <g id="line2d_4">
      <g>
       <use style="stroke:#000000;stroke-width:0.8;" x="189.046385" xlink:href="#m61db23ac27" y="252"/>
      </g>
     </g>
     <g id="text_4">
      <!-- 750 -->
      <g transform="translate(179.502635 266.598437)scale(0.1 -0.1)">
       <defs>
        <path d="M 8.203125 72.90625 
L 55.078125 72.90625 
L 55.078125 68.703125 
L 28.609375 0 
L 18.3125 0 
L 43.21875 64.59375 
L 8.203125 64.59375 
z
" id="DejaVuSans-55"/>
       </defs>
       <use xlink:href="#DejaVuSans-55"/>
       <use x="63.623047" xlink:href="#DejaVuSans-53"/>
       <use x="127.246094" xlink:href="#DejaVuSans-48"/>
      </g>
     </g>
    </g>
    <g id="xtick_5">
     <g id="line2d_5">
      <g>
       <use style="stroke:#000000;stroke-width:0.8;" x="228.98912" xlink:href="#m61db23ac27" y="252"/>
      </g>
     </g>
     <g id="text_5">
      <!-- 1000 -->
      <g transform="translate(216.26412 266.598437)scale(0.1 -0.1)">
       <defs>
        <path d="M 12.40625 8.296875 
L 28.515625 8.296875 
L 28.515625 63.921875 
L 10.984375 60.40625 
L 10.984375 69.390625 
L 28.421875 72.90625 
L 38.28125 72.90625 
L 38.28125 8.296875 
L 54.390625 8.296875 
L 54.390625 0 
L 12.40625 0 
z
" id="DejaVuSans-49"/>
       </defs>
       <use xlink:href="#DejaVuSans-49"/>
       <use x="63.623047" xlink:href="#DejaVuSans-48"/>
       <use x="127.246094" xlink:href="#DejaVuSans-48"/>
       <use x="190.869141" xlink:href="#DejaVuSans-48"/>
      </g>
     </g>
    </g>
    <g id="xtick_6">
     <g id="line2d_6">
      <g>
       <use style="stroke:#000000;stroke-width:0.8;" x="268.931854" xlink:href="#m61db23ac27" y="252"/>
      </g>
     </g>
     <g id="text_6">
      <!-- 1250 -->
      <g transform="translate(256.206854 266.598437)scale(0.1 -0.1)">
       <use xlink:href="#DejaVuSans-49"/>
       <use x="63.623047" xlink:href="#DejaVuSans-50"/>
       <use x="127.246094" xlink:href="#DejaVuSans-53"/>
       <use x="190.869141" xlink:href="#DejaVuSans-48"/>
      </g>
     </g>
    </g>
    <g id="xtick_7">
     <g id="line2d_7">
      <g>
       <use style="stroke:#000000;stroke-width:0.8;" x="308.874588" xlink:href="#m61db23ac27" y="252"/>
      </g>
     </g>
     <g id="text_7">
      <!-- 1500 -->
      <g transform="translate(296.149588 266.598437)scale(0.1 -0.1)">
       <use xlink:href="#DejaVuSans-49"/>
       <use x="63.623047" xlink:href="#DejaVuSans-53"/>
       <use x="127.246094" xlink:href="#DejaVuSans-48"/>
       <use x="190.869141" xlink:href="#DejaVuSans-48"/>
      </g>
     </g>
    </g>
    <g id="xtick_8">
     <g id="line2d_8">
      <g>
       <use style="stroke:#000000;stroke-width:0.8;" x="348.817323" xlink:href="#m61db23ac27" y="252"/>
      </g>
     </g>
     <g id="text_8">
      <!-- 1750 -->
      <g transform="translate(336.092323 266.598437)scale(0.1 -0.1)">
       <use xlink:href="#DejaVuSans-49"/>
       <use x="63.623047" xlink:href="#DejaVuSans-55"/>
       <use x="127.246094" xlink:href="#DejaVuSans-53"/>
       <use x="190.869141" xlink:href="#DejaVuSans-48"/>
      </g>
     </g>
    </g>
    <g id="xtick_9">
     <g id="line2d_9">
      <g>
       <use style="stroke:#000000;stroke-width:0.8;" x="388.760057" xlink:href="#m61db23ac27" y="252"/>
      </g>
     </g>
     <g id="text_9">
      <!-- 2000 -->
      <g transform="translate(376.035057 266.598437)scale(0.1 -0.1)">
       <use xlink:href="#DejaVuSans-50"/>
       <use x="63.623047" xlink:href="#DejaVuSans-48"/>
       <use x="127.246094" xlink:href="#DejaVuSans-48"/>
       <use x="190.869141" xlink:href="#DejaVuSans-48"/>
      </g>
     </g>
    </g>
    <g id="text_10">
     <!-- distance -->
     <g transform="translate(200.213281 280.276563)scale(0.1 -0.1)">
      <defs>
       <path d="M 45.40625 46.390625 
L 45.40625 75.984375 
L 54.390625 75.984375 
L 54.390625 0 
L 45.40625 0 
L 45.40625 8.203125 
Q 42.578125 3.328125 38.25 0.953125 
Q 33.9375 -1.421875 27.875 -1.421875 
Q 17.96875 -1.421875 11.734375 6.484375 
Q 5.515625 14.40625 5.515625 27.296875 
Q 5.515625 40.1875 11.734375 48.09375 
Q 17.96875 56 27.875 56 
Q 33.9375 56 38.25 53.625 
Q 42.578125 51.265625 45.40625 46.390625 
z
M 14.796875 27.296875 
Q 14.796875 17.390625 18.875 11.75 
Q 22.953125 6.109375 30.078125 6.109375 
Q 37.203125 6.109375 41.296875 11.75 
Q 45.40625 17.390625 45.40625 27.296875 
Q 45.40625 37.203125 41.296875 42.84375 
Q 37.203125 48.484375 30.078125 48.484375 
Q 22.953125 48.484375 18.875 42.84375 
Q 14.796875 37.203125 14.796875 27.296875 
z
" id="DejaVuSans-100"/>
       <path d="M 9.421875 54.6875 
L 18.40625 54.6875 
L 18.40625 0 
L 9.421875 0 
z
M 9.421875 75.984375 
L 18.40625 75.984375 
L 18.40625 64.59375 
L 9.421875 64.59375 
z
" id="DejaVuSans-105"/>
       <path d="M 44.28125 53.078125 
L 44.28125 44.578125 
Q 40.484375 46.53125 36.375 47.5 
Q 32.28125 48.484375 27.875 48.484375 
Q 21.1875 48.484375 17.84375 46.4375 
Q 14.5 44.390625 14.5 40.28125 
Q 14.5 37.15625 16.890625 35.375 
Q 19.28125 33.59375 26.515625 31.984375 
L 29.59375 31.296875 
Q 39.15625 29.25 43.1875 25.515625 
Q 47.21875 21.78125 47.21875 15.09375 
Q 47.21875 7.46875 41.1875 3.015625 
Q 35.15625 -1.421875 24.609375 -1.421875 
Q 20.21875 -1.421875 15.453125 -0.5625 
Q 10.6875 0.296875 5.421875 2 
L 5.421875 11.28125 
Q 10.40625 8.6875 15.234375 7.390625 
Q 20.0625 6.109375 24.8125 6.109375 
Q 31.15625 6.109375 34.5625 8.28125 
Q 37.984375 10.453125 37.984375 14.40625 
Q 37.984375 18.0625 35.515625 20.015625 
Q 33.0625 21.96875 24.703125 23.78125 
L 21.578125 24.515625 
Q 13.234375 26.265625 9.515625 29.90625 
Q 5.8125 33.546875 5.8125 39.890625 
Q 5.8125 47.609375 11.28125 51.796875 
Q 16.75 56 26.8125 56 
Q 31.78125 56 36.171875 55.265625 
Q 40.578125 54.546875 44.28125 53.078125 
z
" id="DejaVuSans-115"/>
       <path d="M 18.3125 70.21875 
L 18.3125 54.6875 
L 36.8125 54.6875 
L 36.8125 47.703125 
L 18.3125 47.703125 
L 18.3125 18.015625 
Q 18.3125 11.328125 20.140625 9.421875 
Q 21.96875 7.515625 27.59375 7.515625 
L 36.8125 7.515625 
L 36.8125 0 
L 27.59375 0 
Q 17.1875 0 13.234375 3.875 
Q 9.28125 7.765625 9.28125 18.015625 
L 9.28125 47.703125 
L 2.6875 47.703125 
L 2.6875 54.6875 
L 9.28125 54.6875 
L 9.28125 70.21875 
z
" id="DejaVuSans-116"/>
       <path d="M 34.28125 27.484375 
Q 23.390625 27.484375 19.1875 25 
Q 14.984375 22.515625 14.984375 16.5 
Q 14.984375 11.71875 18.140625 8.90625 
Q 21.296875 6.109375 26.703125 6.109375 
Q 34.1875 6.109375 38.703125 11.40625 
Q 43.21875 16.703125 43.21875 25.484375 
L 43.21875 27.484375 
z
M 52.203125 31.203125 
L 52.203125 0 
L 43.21875 0 
L 43.21875 8.296875 
Q 40.140625 3.328125 35.546875 0.953125 
Q 30.953125 -1.421875 24.3125 -1.421875 
Q 15.921875 -1.421875 10.953125 3.296875 
Q 6 8.015625 6 15.921875 
Q 6 25.140625 12.171875 29.828125 
Q 18.359375 34.515625 30.609375 34.515625 
L 43.21875 34.515625 
L 43.21875 35.40625 
Q 43.21875 41.609375 39.140625 45 
Q 35.0625 48.390625 27.6875 48.390625 
Q 23 48.390625 18.546875 47.265625 
Q 14.109375 46.140625 10.015625 43.890625 
L 10.015625 52.203125 
Q 14.9375 54.109375 19.578125 55.046875 
Q 24.21875 56 28.609375 56 
Q 40.484375 56 46.34375 49.84375 
Q 52.203125 43.703125 52.203125 31.203125 
z
" id="DejaVuSans-97"/>
       <path d="M 54.890625 33.015625 
L 54.890625 0 
L 45.90625 0 
L 45.90625 32.71875 
Q 45.90625 40.484375 42.875 44.328125 
Q 39.84375 48.1875 33.796875 48.1875 
Q 26.515625 48.1875 22.3125 43.546875 
Q 18.109375 38.921875 18.109375 30.90625 
L 18.109375 0 
L 9.078125 0 
L 9.078125 54.6875 
L 18.109375 54.6875 
L 18.109375 46.1875 
Q 21.34375 51.125 25.703125 53.5625 
Q 30.078125 56 35.796875 56 
Q 45.21875 56 50.046875 50.171875 
Q 54.890625 44.34375 54.890625 33.015625 
z
" id="DejaVuSans-110"/>
       <path d="M 48.78125 52.59375 
L 48.78125 44.1875 
Q 44.96875 46.296875 41.140625 47.34375 
Q 37.3125 48.390625 33.40625 48.390625 
Q 24.65625 48.390625 19.8125 42.84375 
Q 14.984375 37.3125 14.984375 27.296875 
Q 14.984375 17.28125 19.8125 11.734375 
Q 24.65625 6.203125 33.40625 6.203125 
Q 37.3125 6.203125 41.140625 7.25 
Q 44.96875 8.296875 48.78125 10.40625 
L 48.78125 2.09375 
Q 45.015625 0.34375 40.984375 -0.53125 
Q 36.96875 -1.421875 32.421875 -1.421875 
Q 20.0625 -1.421875 12.78125 6.34375 
Q 5.515625 14.109375 5.515625 27.296875 
Q 5.515625 40.671875 12.859375 48.328125 
Q 20.21875 56 33.015625 56 
Q 37.15625 56 41.109375 55.140625 
Q 45.0625 54.296875 48.78125 52.59375 
z
" id="DejaVuSans-99"/>
       <path d="M 56.203125 29.59375 
L 56.203125 25.203125 
L 14.890625 25.203125 
Q 15.484375 15.921875 20.484375 11.0625 
Q 25.484375 6.203125 34.421875 6.203125 
Q 39.59375 6.203125 44.453125 7.46875 
Q 49.3125 8.734375 54.109375 11.28125 
L 54.109375 2.78125 
Q 49.265625 0.734375 44.1875 -0.34375 
Q 39.109375 -1.421875 33.890625 -1.421875 
Q 20.796875 -1.421875 13.15625 6.1875 
Q 5.515625 13.8125 5.515625 26.8125 
Q 5.515625 40.234375 12.765625 48.109375 
Q 20.015625 56 32.328125 56 
Q 43.359375 56 49.78125 48.890625 
Q 56.203125 41.796875 56.203125 29.59375 
z
M 47.21875 32.234375 
Q 47.125 39.59375 43.09375 43.984375 
Q 39.0625 48.390625 32.421875 48.390625 
Q 24.90625 48.390625 20.390625 44.140625 
Q 15.875 39.890625 15.1875 32.171875 
z
" id="DejaVuSans-101"/>
      </defs>
      <use xlink:href="#DejaVuSans-100"/>
      <use x="63.476562" xlink:href="#DejaVuSans-105"/>
      <use x="91.259766" xlink:href="#DejaVuSans-115"/>
      <use x="143.359375" xlink:href="#DejaVuSans-116"/>
      <use x="182.568359" xlink:href="#DejaVuSans-97"/>
      <use x="243.847656" xlink:href="#DejaVuSans-110"/>
      <use x="307.226562" xlink:href="#DejaVuSans-99"/>
      <use x="362.207031" xlink:href="#DejaVuSans-101"/>
     </g>
    </g>
   </g>
   <g id="matplotlib.axis_2">
    <g id="ytick_1">
     <g id="line2d_10">
      <defs>
       <path d="M 0 0 
L -3.5 0 
" id="m8c4e2e602f" style="stroke:#000000;stroke-width:0.8;"/>
      </defs>
      <g>
       <use style="stroke:#000000;stroke-width:0.8;" x="54" xlink:href="#m8c4e2e602f" y="44.443636"/>
      </g>
     </g>
     <g id="text_11">
      <!-- 0 -->
      <g transform="translate(40.6375 48.242855)scale(0.1 -0.1)">
       <use xlink:href="#DejaVuSans-48"/>
      </g>
     </g>
    </g>
    <g id="ytick_2">
     <g id="line2d_11">
      <g>
       <use style="stroke:#000000;stroke-width:0.8;" x="54" xlink:href="#m8c4e2e602f" y="88.031889"/>
      </g>
     </g>
     <g id="text_12">
      <!-- 200 -->
      <g transform="translate(27.9125 91.831108)scale(0.1 -0.1)">
       <use xlink:href="#DejaVuSans-50"/>
       <use x="63.623047" xlink:href="#DejaVuSans-48"/>
       <use x="127.246094" xlink:href="#DejaVuSans-48"/>
      </g>
     </g>
    </g>
    <g id="ytick_3">
     <g id="line2d_12">
      <g>
       <use style="stroke:#000000;stroke-width:0.8;" x="54" xlink:href="#m8c4e2e602f" y="131.620142"/>
      </g>
     </g>
     <g id="text_13">
      <!-- 400 -->
      <g transform="translate(27.9125 135.419361)scale(0.1 -0.1)">
       <defs>
        <path d="M 37.796875 64.3125 
L 12.890625 25.390625 
L 37.796875 25.390625 
z
M 35.203125 72.90625 
L 47.609375 72.90625 
L 47.609375 25.390625 
L 58.015625 25.390625 
L 58.015625 17.1875 
L 47.609375 17.1875 
L 47.609375 0 
L 37.796875 0 
L 37.796875 17.1875 
L 4.890625 17.1875 
L 4.890625 26.703125 
z
" id="DejaVuSans-52"/>
       </defs>
       <use xlink:href="#DejaVuSans-52"/>
       <use x="63.623047" xlink:href="#DejaVuSans-48"/>
       <use x="127.246094" xlink:href="#DejaVuSans-48"/>
      </g>
     </g>
    </g>
    <g id="ytick_4">
     <g id="line2d_13">
      <g>
       <use style="stroke:#000000;stroke-width:0.8;" x="54" xlink:href="#m8c4e2e602f" y="175.208395"/>
      </g>
     </g>
     <g id="text_14">
      <!-- 600 -->
      <g transform="translate(27.9125 179.007614)scale(0.1 -0.1)">
       <defs>
        <path d="M 33.015625 40.375 
Q 26.375 40.375 22.484375 35.828125 
Q 18.609375 31.296875 18.609375 23.390625 
Q 18.609375 15.53125 22.484375 10.953125 
Q 26.375 6.390625 33.015625 6.390625 
Q 39.65625 6.390625 43.53125 10.953125 
Q 47.40625 15.53125 47.40625 23.390625 
Q 47.40625 31.296875 43.53125 35.828125 
Q 39.65625 40.375 33.015625 40.375 
z
M 52.59375 71.296875 
L 52.59375 62.3125 
Q 48.875 64.0625 45.09375 64.984375 
Q 41.3125 65.921875 37.59375 65.921875 
Q 27.828125 65.921875 22.671875 59.328125 
Q 17.53125 52.734375 16.796875 39.40625 
Q 19.671875 43.65625 24.015625 45.921875 
Q 28.375 48.1875 33.59375 48.1875 
Q 44.578125 48.1875 50.953125 41.515625 
Q 57.328125 34.859375 57.328125 23.390625 
Q 57.328125 12.15625 50.6875 5.359375 
Q 44.046875 -1.421875 33.015625 -1.421875 
Q 20.359375 -1.421875 13.671875 8.265625 
Q 6.984375 17.96875 6.984375 36.375 
Q 6.984375 53.65625 15.1875 63.9375 
Q 23.390625 74.21875 37.203125 74.21875 
Q 40.921875 74.21875 44.703125 73.484375 
Q 48.484375 72.75 52.59375 71.296875 
z
" id="DejaVuSans-54"/>
       </defs>
       <use xlink:href="#DejaVuSans-54"/>
       <use x="63.623047" xlink:href="#DejaVuSans-48"/>
       <use x="127.246094" xlink:href="#DejaVuSans-48"/>
      </g>
     </g>
    </g>
    <g id="ytick_5">
     <g id="line2d_14">
      <g>
       <use style="stroke:#000000;stroke-width:0.8;" x="54" xlink:href="#m8c4e2e602f" y="218.796648"/>
      </g>
     </g>
     <g id="text_15">
      <!-- 800 -->
      <g transform="translate(27.9125 222.595867)scale(0.1 -0.1)">
       <defs>
        <path d="M 31.78125 34.625 
Q 24.75 34.625 20.71875 30.859375 
Q 16.703125 27.09375 16.703125 20.515625 
Q 16.703125 13.921875 20.71875 10.15625 
Q 24.75 6.390625 31.78125 6.390625 
Q 38.8125 6.390625 42.859375 10.171875 
Q 46.921875 13.96875 46.921875 20.515625 
Q 46.921875 27.09375 42.890625 30.859375 
Q 38.875 34.625 31.78125 34.625 
z
M 21.921875 38.8125 
Q 15.578125 40.375 12.03125 44.71875 
Q 8.5 49.078125 8.5 55.328125 
Q 8.5 64.0625 14.71875 69.140625 
Q 20.953125 74.21875 31.78125 74.21875 
Q 42.671875 74.21875 48.875 69.140625 
Q 55.078125 64.0625 55.078125 55.328125 
Q 55.078125 49.078125 51.53125 44.71875 
Q 48 40.375 41.703125 38.8125 
Q 48.828125 37.15625 52.796875 32.3125 
Q 56.78125 27.484375 56.78125 20.515625 
Q 56.78125 9.90625 50.3125 4.234375 
Q 43.84375 -1.421875 31.78125 -1.421875 
Q 19.734375 -1.421875 13.25 4.234375 
Q 6.78125 9.90625 6.78125 20.515625 
Q 6.78125 27.484375 10.78125 32.3125 
Q 14.796875 37.15625 21.921875 38.8125 
z
M 18.3125 54.390625 
Q 18.3125 48.734375 21.84375 45.5625 
Q 25.390625 42.390625 31.78125 42.390625 
Q 38.140625 42.390625 41.71875 45.5625 
Q 45.3125 48.734375 45.3125 54.390625 
Q 45.3125 60.0625 41.71875 63.234375 
Q 38.140625 66.40625 31.78125 66.40625 
Q 25.390625 66.40625 21.84375 63.234375 
Q 18.3125 60.0625 18.3125 54.390625 
z
" id="DejaVuSans-56"/>
       </defs>
       <use xlink:href="#DejaVuSans-56"/>
       <use x="63.623047" xlink:href="#DejaVuSans-48"/>
       <use x="127.246094" xlink:href="#DejaVuSans-48"/>
      </g>
     </g>
    </g>
   </g>
   <g id="line2d_15">
    <path clip-path="url(#p72f1b32039)" d="M 69.218182 44.443636 
L 69.857266 44.443636 
L 69.857266 46.405108 
L 70.815891 46.405108 
L 70.815891 47.494814 
L 70.815891 47.058932 
L 72.733142 47.058932 
L 72.733142 45.969225 
L 72.733142 48.58452 
L 72.733142 47.930697 
L 75.129707 47.930697 
L 75.129707 50.763933 
L 78.644667 50.763933 
L 78.644667 48.802462 
L 78.644667 54.033052 
L 79.922835 54.033052 
L 79.922835 55.994523 
L 82.638941 55.994523 
L 82.638941 53.597169 
L 82.638941 58.173936 
L 84.076879 58.173936 
L 84.076879 56.866288 
L 85.035505 56.866288 
L 85.035505 52.943346 
L 85.035505 55.558641 
L 86.473443 55.558641 
L 86.473443 56.430406 
L 87.432069 56.430406 
L 87.432069 57.738054 
L 87.432069 55.3407 
L 89.029778 55.3407 
L 89.029778 56.648347 
L 89.029778 55.3407 
L 90.307946 55.3407 
L 90.307946 56.866288 
L 93.343593 56.866288 
L 93.343593 57.955995 
L 93.343593 52.071581 
L 93.343593 53.161287 
L 94.46199 53.161287 
L 94.46199 53.379228 
L 94.46199 51.417757 
L 94.46199 52.943346 
L 94.781532 52.943346 
L 94.781532 54.686876 
L 97.337867 54.686876 
L 97.337867 56.648347 
L 97.337867 55.776582 
L 98.775805 55.776582 
L 98.775805 57.302171 
L 99.095347 57.302171 
L 99.095347 57.520112 
L 99.894202 57.520112 
L 99.894202 54.686876 
L 102.450537 54.686876 
L 102.450537 57.738054 
L 103.888475 57.738054 
L 103.888475 58.391877 
L 105.326414 58.391877 
L 105.326414 59.045701 
L 105.326414 57.08423 
L 105.326414 58.173936 
L 105.965497 58.173936 
L 105.965497 59.045701 
L 105.965497 57.302171 
L 107.083894 57.302171 
L 107.083894 57.08423 
L 107.083894 57.520112 
L 107.722978 57.520112 
L 107.722978 62.750703 
L 108.681603 62.750703 
L 108.681603 64.930115 
L 108.841374 64.930115 
L 108.841374 65.365998 
L 109.001145 65.365998 
L 109.001145 66.891587 
L 109.8 66.891587 
L 109.8 66.237763 
L 110.758626 66.237763 
L 110.758626 64.276291 
L 110.758626 67.54541 
L 111.397709 67.54541 
L 111.397709 68.417176 
L 113.794273 68.417176 
L 113.794273 69.942764 
L 113.794273 66.673645 
L 114.433357 66.673645 
L 114.433357 67.763352 
L 114.752899 67.763352 
L 114.752899 70.814529 
L 116.190838 70.814529 
L 116.190838 73.647766 
L 116.190838 72.776001 
L 117.309234 72.776001 
L 117.309234 71.032471 
L 117.309234 72.776001 
L 118.747173 72.776001 
L 118.747173 76.481002 
L 119.386256 76.481002 
L 119.386256 76.263061 
L 119.386256 78.006591 
L 119.386256 76.263061 
L 120.02534 76.263061 
L 120.02534 79.750121 
L 121.143737 79.750121 
L 121.143737 79.096297 
L 121.143737 80.403945 
L 122.262133 80.403945 
L 122.262133 80.186004 
L 124.019613 80.186004 
L 124.019613 76.698944 
L 125.457552 76.698944 
L 125.457552 79.968063 
L 125.457552 78.442474 
L 126.416178 78.442474 
L 126.416178 79.53218 
L 126.735719 79.53218 
L 126.735719 83.455123 
L 126.735719 82.583358 
L 129.292054 82.583358 
L 129.292054 82.801299 
L 130.570222 82.801299 
L 130.570222 80.839828 
L 130.570222 82.365416 
L 132.966786 82.365416 
L 132.966786 81.057769 
L 132.966786 82.365416 
L 133.925412 82.365416 
L 133.925412 81.711593 
L 135.36335 81.711593 
L 135.36335 82.365416 
L 135.682892 82.365416 
L 135.682892 84.544829 
L 135.682892 83.673064 
L 136.481747 83.673064 
L 136.481747 85.634535 
L 137.759914 85.634535 
L 137.759914 86.070418 
L 137.919685 86.070418 
L 137.919685 89.557478 
L 140.635791 89.557478 
L 140.635791 90.865126 
L 141.434646 90.865126 
L 141.434646 89.121596 
L 141.434646 92.172773 
L 141.434646 91.51895 
L 143.351897 91.51895 
L 143.351897 92.608656 
L 143.351897 91.51895 
L 147.026628 91.51895 
L 147.026628 89.557478 
L 148.304796 89.557478 
L 148.304796 89.775419 
L 150.861131 89.775419 
L 150.861131 87.160124 
L 150.861131 87.378066 
L 151.500215 87.378066 
L 151.500215 89.121596 
L 151.500215 86.5063 
L 151.500215 88.249831 
L 153.896779 88.249831 
L 153.896779 86.942183 
L 154.376092 86.942183 
L 154.376092 85.198653 
L 154.855404 85.198653 
L 154.855404 85.634535 
L 156.612885 85.634535 
L 156.612885 86.070418 
L 157.731281 86.070418 
L 157.731281 87.160124 
L 158.689907 87.160124 
L 158.689907 89.121596 
L 158.689907 87.160124 
L 161.565784 87.160124 
L 161.565784 87.596007 
L 161.565784 87.160124 
L 163.163493 87.160124 
L 163.163493 88.249831 
L 164.601432 88.249831 
L 164.601432 89.121596 
L 165.879599 89.121596 
L 165.879599 87.378066 
L 166.199141 87.378066 
L 166.199141 86.5063 
L 167.317538 86.5063 
L 167.317538 86.942183 
L 168.595705 86.942183 
L 168.595705 88.249831 
L 169.234789 88.249831 
L 169.234789 89.775419 
L 169.873873 89.775419 
L 169.873873 91.51895 
L 171.791124 91.51895 
L 171.791124 91.954832 
L 171.791124 91.083067 
L 171.950895 91.083067 
L 171.950895 92.608656 
L 174.187688 92.608656 
L 174.187688 93.26248 
L 175.625626 93.26248 
L 175.625626 95.00601 
L 176.744023 95.00601 
L 176.744023 93.698362 
L 178.02219 93.698362 
L 178.02219 95.659834 
L 178.980816 95.659834 
L 178.980816 93.698362 
L 178.980816 94.570127 
L 179.460129 94.570127 
L 179.460129 93.698362 
L 179.460129 97.839246 
L 179.460129 96.095716 
L 180.099213 96.095716 
L 180.099213 97.621305 
L 180.099213 96.313657 
L 182.176235 96.313657 
L 182.176235 97.839246 
L 183.454402 97.839246 
L 183.454402 96.74954 
L 184.253257 96.74954 
L 184.253257 96.967481 
L 185.531424 96.967481 
L 185.531424 99.146894 
L 186.49005 99.146894 
L 186.49005 98.928953 
L 186.49005 100.2366 
L 190.803865 100.2366 
L 190.803865 101.108365 
L 191.123407 101.108365 
L 191.123407 101.326307 
L 193.200429 101.326307 
L 193.200429 106.774838 
L 193.200429 105.903073 
L 193.679742 105.903073 
L 193.679742 103.72366 
L 193.679742 106.774838 
L 194.638368 106.774838 
L 194.638368 105.249249 
L 194.638368 106.774838 
L 196.076306 106.774838 
L 196.076306 109.390133 
L 198.632641 109.390133 
L 198.632641 110.261898 
L 199.431496 110.261898 
L 199.431496 112.22337 
L 199.431496 111.569546 
L 202.786686 111.569546 
L 202.786686 112.659252 
L 203.905082 112.659252 
L 203.905082 111.787487 
L 203.905082 112.005428 
L 204.384395 112.005428 
L 204.384395 112.659252 
L 205.023479 112.659252 
L 205.023479 114.620724 
L 205.343021 114.620724 
L 205.343021 115.928371 
L 206.621188 115.928371 
L 206.621188 116.582195 
L 207.739585 116.582195 
L 207.739585 116.364254 
L 207.739585 117.018078 
L 208.059127 117.018078 
L 208.059127 115.274547 
L 208.059127 115.71043 
L 209.976378 115.71043 
L 209.976378 116.800136 
L 209.976378 115.492489 
L 209.976378 116.146313 
L 210.775233 116.146313 
L 210.775233 117.018078 
L 210.775233 115.928371 
L 211.893629 115.928371 
L 211.893629 115.71043 
L 211.893629 116.364254 
L 213.65111 116.364254 
L 213.65111 118.761608 
L 214.449964 118.761608 
L 214.449964 116.582195 
L 215.40859 116.582195 
L 215.40859 120.287197 
L 217.16607 120.287197 
L 217.16607 123.556316 
L 220.201718 123.556316 
L 220.201718 127.479258 
L 220.52126 127.479258 
L 220.52126 126.607493 
L 221.799427 126.607493 
L 221.799427 126.825434 
L 223.397137 126.825434 
L 223.397137 128.786906 
L 223.716679 128.786906 
L 223.716679 130.748377 
L 223.716679 127.6972 
L 224.994846 127.6972 
L 224.994846 129.222788 
L 225.154617 129.222788 
L 225.154617 129.44073 
L 225.793701 129.44073 
L 225.793701 129.004847 
L 225.793701 131.620142 
L 226.592555 131.620142 
L 226.592555 133.363672 
L 227.231639 133.363672 
L 227.231639 134.453379 
L 227.231639 131.402201 
L 227.231639 133.799555 
L 228.509807 133.799555 
L 228.509807 134.235438 
L 228.509807 133.363672 
L 228.509807 133.799555 
L 231.066142 133.799555 
L 231.066142 130.312495 
L 231.225913 130.312495 
L 231.225913 129.44073 
L 231.705225 129.44073 
L 231.705225 128.351023 
L 235.85927 128.351023 
L 235.85927 129.876612 
L 238.894918 129.876612 
L 238.894918 134.017496 
L 239.853543 134.017496 
L 239.853543 137.286615 
L 241.131711 137.286615 
L 241.131711 144.696618 
L 241.131711 143.606912 
L 242.250107 143.606912 
L 242.250107 145.568383 
L 243.208733 145.568383 
L 243.208733 147.093972 
L 244.007588 147.093972 
L 244.007588 148.183678 
L 244.167359 148.183678 
L 244.167359 149.927209 
L 244.167359 147.311913 
L 244.486901 147.311913 
L 244.486901 145.350442 
L 245.445526 145.350442 
L 245.445526 149.491326 
L 245.445526 148.183678 
L 246.883465 148.183678 
L 246.883465 156.465447 
L 246.883465 154.721916 
L 247.682319 154.721916 
L 247.682319 156.683388 
L 248.001861 156.683388 
L 248.001861 156.247505 
L 248.001861 157.555153 
L 249.919112 157.555153 
L 249.919112 159.080742 
L 251.19728 159.080742 
L 251.19728 161.260154 
L 251.516822 161.260154 
L 251.516822 167.144569 
L 252.155906 167.144569 
L 252.155906 165.183097 
L 252.155906 167.36251 
L 252.635218 167.36251 
L 252.635218 168.452216 
L 252.635218 168.234275 
L 253.434073 168.234275 
L 253.434073 167.798392 
L 253.434073 168.234275 
L 253.753615 168.234275 
L 253.753615 166.272803 
L 255.191553 166.272803 
L 255.191553 168.016334 
L 258.546743 168.016334 
L 258.546743 173.682806 
L 258.546743 173.464865 
L 259.824911 173.464865 
L 259.824911 172.375159 
L 259.824911 174.33663 
L 259.984681 174.33663 
L 259.984681 174.118689 
L 260.304223 174.118689 
L 260.304223 176.08016 
L 261.103078 176.08016 
L 261.103078 174.118689 
L 262.221475 174.118689 
L 262.221475 179.349279 
L 262.221475 178.477514 
L 263.659413 178.477514 
L 263.659413 179.349279 
L 263.659413 177.605749 
L 263.659413 178.913397 
L 265.097351 178.913397 
L 265.097351 180.221044 
L 265.097351 178.477514 
L 265.097351 179.785162 
L 266.215748 179.785162 
L 266.215748 177.387808 
L 266.53529 177.387808 
L 266.53529 175.862219 
L 268.452541 175.862219 
L 268.452541 176.08016 
L 269.89048 176.08016 
L 269.89048 177.82369 
L 271.328418 177.82369 
L 271.328418 179.131338 
L 272.766356 179.131338 
L 272.766356 178.913397 
L 272.766356 179.349279 
L 274.204295 179.349279 
L 274.204295 180.874868 
L 275.961775 180.874868 
L 275.961775 181.964575 
L 278.837652 181.964575 
L 278.837652 183.054281 
L 279.476736 183.054281 
L 279.476736 185.887517 
L 282.512384 185.887517 
L 282.512384 183.926046 
L 282.512384 185.887517 
L 283.63078 185.887517 
L 283.63078 189.592519 
L 286.98597 189.592519 
L 286.98597 189.81046 
L 289.222763 189.81046 
L 289.222763 188.06693 
L 290.181389 188.06693 
L 290.181389 187.195165 
L 290.181389 195.258992 
L 290.500931 195.258992 
L 290.500931 195.694874 
L 290.500931 194.605168 
L 292.09864 194.605168 
L 292.09864 192.643697 
L 292.09864 194.605168 
L 292.418182 194.605168 
L 292.418182 201.579288 
L 295.294059 201.579288 
L 295.294059 199.835758 
L 295.294059 202.886936 
L 295.294059 201.579288 
L 297.21131 201.579288 
L 297.21131 207.02782 
L 298.329707 207.02782 
L 298.329707 208.989291 
L 299.767645 208.989291 
L 299.767645 207.899585 
L 302.803293 207.899585 
L 302.803293 208.553409 
L 303.761918 208.553409 
L 303.761918 206.591937 
L 303.761918 208.117526 
L 305.838941 208.117526 
L 305.838941 209.207233 
L 307.276879 209.207233 
L 307.276879 209.425174 
L 309.353901 209.425174 
L 309.353901 207.899585 
L 310.472298 207.899585 
L 310.472298 208.989291 
L 312.229778 208.989291 
L 312.229778 211.604587 
L 312.229778 206.591937 
L 314.466571 206.591937 
L 314.466571 204.630466 
L 317.821761 204.630466 
L 317.821761 205.066349 
L 318.940157 205.066349 
L 318.940157 206.373996 
L 318.940157 203.758701 
L 320.537867 203.758701 
L 320.537867 207.245761 
L 320.697638 207.245761 
L 320.697638 204.848407 
L 321.01718 204.848407 
L 321.01718 203.976642 
L 321.656263 203.976642 
L 321.656263 203.758701 
L 322.135576 203.758701 
L 322.135576 205.28429 
L 322.934431 205.28429 
L 322.934431 206.156055 
L 324.372369 206.156055 
L 324.372369 205.28429 
L 324.372369 206.809879 
L 325.970079 206.809879 
L 325.970079 205.502231 
L 328.206872 205.502231 
L 328.206872 207.245761 
L 329.325268 207.245761 
L 329.325268 210.950763 
L 329.325268 210.296939 
L 330.283894 210.296939 
L 330.283894 212.912234 
L 330.283894 212.912234 
L 331.402291 212.912234 
L 331.402291 215.963412 
L 331.402291 212.040469 
L 331.402291 214.655764 
L 331.721832 214.655764 
L 331.721832 213.130175 
L 331.721832 215.091647 
L 331.721832 214.00194 
L 332.680458 214.00194 
L 332.680458 210.950763 
L 333.639084 210.950763 
L 333.639084 212.476352 
L 334.75748 212.476352 
L 334.75748 210.296939 
L 336.195419 210.296939 
L 336.195419 208.989291 
L 337.633357 208.989291 
L 337.633357 213.348117 
L 338.751754 213.348117 
L 338.751754 214.437823 
L 339.710379 214.437823 
L 339.710379 215.527529 
L 339.710379 214.655764 
L 341.148318 214.655764 
L 341.148318 213.566058 
L 341.148318 213.783999 
L 341.787402 213.783999 
L 341.787402 215.309588 
L 342.426485 215.309588 
L 342.426485 219.01459 
L 342.905798 219.01459 
L 342.905798 218.142824 
L 343.704653 218.142824 
L 343.704653 220.540178 
L 346.101217 220.540178 
L 346.101217 219.668413 
L 346.101217 221.629885 
L 346.101217 220.322237 
L 347.539155 220.322237 
L 347.539155 219.232531 
L 347.539155 220.322237 
L 348.018468 220.322237 
L 348.018468 220.104296 
L 349.136865 220.104296 
L 349.136865 220.976061 
L 350.255261 220.976061 
L 350.255261 222.937532 
L 350.255261 222.283709 
L 350.415032 222.283709 
L 350.415032 225.116945 
L 350.894345 225.116945 
L 350.894345 223.809297 
L 351.373658 223.809297 
L 351.373658 222.283709 
L 353.770222 222.283709 
L 353.770222 222.065767 
L 353.770222 224.681062 
L 353.770222 222.50165 
L 354.569077 222.50165 
L 354.569077 225.334886 
L 354.569077 225.116945 
L 355.367931 225.116945 
L 355.367931 226.642534 
L 356.326557 226.642534 
L 356.326557 229.039888 
L 356.326557 227.296358 
L 358.084037 227.296358 
L 358.084037 231.2193 
L 359.202434 231.2193 
L 359.202434 230.347535 
L 360.32083 230.347535 
L 360.32083 229.47577 
L 360.32083 229.911653 
L 361.279456 229.911653 
L 361.279456 232.091065 
L 361.279456 231.655183 
L 362.717394 231.655183 
L 362.717394 232.962831 
L 363.516249 232.962831 
L 363.516249 233.834596 
L 363.516249 232.744889 
L 363.516249 233.180772 
L 363.835791 233.180772 
L 363.835791 232.962831 
L 364.474875 232.962831 
L 364.474875 231.437242 
L 364.474875 232.962831 
L 364.954188 232.962831 
L 364.954188 232.526948 
L 365.753042 232.526948 
L 365.753042 233.834596 
L 366.551897 233.834596 
L 366.551897 234.052537 
L 366.551897 232.962831 
L 367.190981 232.962831 
L 367.190981 232.091065 
L 367.190981 235.142243 
L 368.78869 235.142243 
L 368.78869 233.834596 
L 368.78869 236.231949 
L 368.948461 236.231949 
L 368.948461 237.103715 
L 370.386399 237.103715 
L 370.386399 236.885773 
L 370.865712 236.885773 
L 370.865712 236.449891 
L 370.865712 240.808716 
L 372.782963 240.808716 
L 372.782963 240.372834 
L 372.782963 242.116364 
L 373.581818 242.116364 
L 373.581818 242.116364 
" style="fill:none;stroke:#008000;stroke-linecap:square;stroke-width:1.5;"/>
   </g>
   <g id="patch_3">
    <path d="M 54 252 
L 54 34.56 
" style="fill:none;stroke:#000000;stroke-linecap:square;stroke-linejoin:miter;stroke-width:0.8;"/>
   </g>
   <g id="patch_4">
    <path d="M 388.8 252 
L 388.8 34.56 
" style="fill:none;stroke:#000000;stroke-linecap:square;stroke-linejoin:miter;stroke-width:0.8;"/>
   </g>
   <g id="patch_5">
    <path d="M 54 252 
L 388.8 252 
" style="fill:none;stroke:#000000;stroke-linecap:square;stroke-linejoin:miter;stroke-width:0.8;"/>
   </g>
   <g id="patch_6">
    <path d="M 54 34.56 
L 388.8 34.56 
" style="fill:none;stroke:#000000;stroke-linecap:square;stroke-linejoin:miter;stroke-width:0.8;"/>
   </g>
   <g id="legend_1">
    <g id="patch_7">
     <path d="M 331.153125 57.238125 
L 381.8 57.238125 
Q 383.8 57.238125 383.8 55.238125 
L 383.8 41.56 
Q 383.8 39.56 381.8 39.56 
L 331.153125 39.56 
Q 329.153125 39.56 329.153125 41.56 
L 329.153125 55.238125 
Q 329.153125 57.238125 331.153125 57.238125 
z
" style="fill:#ffffff;opacity:0.8;stroke:#cccccc;stroke-linejoin:miter;"/>
    </g>
    <g id="line2d_16">
     <path d="M 333.153125 47.658437 
L 353.153125 47.658437 
" style="fill:none;stroke:#008000;stroke-linecap:square;stroke-width:1.5;"/>
    </g>
    <g id="line2d_17"/>
    <g id="text_16">
     <!-- aim -->
     <g transform="translate(361.153125 51.158437)scale(0.1 -0.1)">
      <defs>
       <path d="M 52 44.1875 
Q 55.375 50.25 60.0625 53.125 
Q 64.75 56 71.09375 56 
Q 79.640625 56 84.28125 50.015625 
Q 88.921875 44.046875 88.921875 33.015625 
L 88.921875 0 
L 79.890625 0 
L 79.890625 32.71875 
Q 79.890625 40.578125 77.09375 44.375 
Q 74.3125 48.1875 68.609375 48.1875 
Q 61.625 48.1875 57.5625 43.546875 
Q 53.515625 38.921875 53.515625 30.90625 
L 53.515625 0 
L 44.484375 0 
L 44.484375 32.71875 
Q 44.484375 40.625 41.703125 44.40625 
Q 38.921875 48.1875 33.109375 48.1875 
Q 26.21875 48.1875 22.15625 43.53125 
Q 18.109375 38.875 18.109375 30.90625 
L 18.109375 0 
L 9.078125 0 
L 9.078125 54.6875 
L 18.109375 54.6875 
L 18.109375 46.1875 
Q 21.1875 51.21875 25.484375 53.609375 
Q 29.78125 56 35.6875 56 
Q 41.65625 56 45.828125 52.96875 
Q 50 49.953125 52 44.1875 
z
" id="DejaVuSans-109"/>
      </defs>
      <use xlink:href="#DejaVuSans-97"/>
      <use x="61.279297" xlink:href="#DejaVuSans-105"/>
      <use x="89.0625" xlink:href="#DejaVuSans-109"/>
     </g>
    </g>
   </g>
  </g>
 </g>
 <defs>
  <clipPath id="p72f1b32039">
   <rect height="217.44" width="334.8" x="54" y="34.56"/>
  </clipPath>
 </defs>
</svg>
