<?xml version="1.0" encoding="utf-8" standalone="no"?>
<!DOCTYPE svg PUBLIC "-//W3C//DTD SVG 1.1//EN"
  "http://www.w3.org/Graphics/SVG/1.1/DTD/svg11.dtd">
<!-- Created with matplotlib (https://matplotlib.org/) -->
<svg height="288pt" version="1.1" viewBox="0 0 432 288" width="432pt" xmlns="http://www.w3.org/2000/svg" xmlns:xlink="http://www.w3.org/1999/xlink">
 <metadata>
  <rdf:RDF xmlns:cc="http://creativecommons.org/ns#" xmlns:dc="http://purl.org/dc/elements/1.1/" xmlns:rdf="http://www.w3.org/1999/02/22-rdf-syntax-ns#">
   <cc:Work>
    <dc:type rdf:resource="http://purl.org/dc/dcmitype/StillImage"/>
    <dc:date>2021-12-02T13:35:04.622203</dc:date>
    <dc:format>image/svg+xml</dc:format>
    <dc:creator>
     <cc:Agent>
      <dc:title>Matplotlib v3.3.2, https://matplotlib.org/</dc:title>
     </cc:Agent>
    </dc:creator>
   </cc:Work>
  </rdf:RDF>
 </metadata>
 <defs>
  <style type="text/css">*{stroke-linecap:butt;stroke-linejoin:round;}</style>
 </defs>
 <g id="figure_1">
  <g id="patch_1">
   <path d="M 0 288 
L 432 288 
L 432 0 
L 0 0 
z
" style="fill:none;"/>
  </g>
  <g id="axes_1">
   <g id="patch_2">
    <path d="M 54 252 
L 388.8 252 
L 388.8 34.56 
L 54 34.56 
z
" style="fill:#ffffff;"/>
   </g>
   <g id="matplotlib.axis_1">
    <g id="ytick_1">
     <g id="line2d_1">
      <defs>
       <path d="M 0 0 
L -3.5 0 
" id="mecaf08193e" style="stroke:#000000;stroke-width:0.8;"/>
      </defs>
      <g>
       <use style="stroke:#000000;stroke-width:0.8;" x="54" xlink:href="#mecaf08193e" y="40.110246"/>
      </g>
     </g>
     <g id="text_1">
      <!-- 0 -->
      <g transform="translate(40.6375 43.909465)scale(0.1 -0.1)">
       <defs>
        <path d="M 31.78125 66.40625 
Q 24.171875 66.40625 20.328125 58.90625 
Q 16.5 51.421875 16.5 36.375 
Q 16.5 21.390625 20.328125 13.890625 
Q 24.171875 6.390625 31.78125 6.390625 
Q 39.453125 6.390625 43.28125 13.890625 
Q 47.125 21.390625 47.125 36.375 
Q 47.125 51.421875 43.28125 58.90625 
Q 39.453125 66.40625 31.78125 66.40625 
z
M 31.78125 74.21875 
Q 44.046875 74.21875 50.515625 64.515625 
Q 56.984375 54.828125 56.984375 36.375 
Q 56.984375 17.96875 50.515625 8.265625 
Q 44.046875 -1.421875 31.78125 -1.421875 
Q 19.53125 -1.421875 13.0625 8.265625 
Q 6.59375 17.96875 6.59375 36.375 
Q 6.59375 54.828125 13.0625 64.515625 
Q 19.53125 74.21875 31.78125 74.21875 
z
" id="DejaVuSans-48"/>
       </defs>
       <use xlink:href="#DejaVuSans-48"/>
      </g>
     </g>
    </g>
    <g id="ytick_2">
     <g id="line2d_2">
      <g>
       <use style="stroke:#000000;stroke-width:0.8;" x="54" xlink:href="#mecaf08193e" y="67.081555"/>
      </g>
     </g>
     <g id="text_2">
      <!-- 1000 -->
      <g transform="translate(21.55 70.880774)scale(0.1 -0.1)">
       <defs>
        <path d="M 12.40625 8.296875 
L 28.515625 8.296875 
L 28.515625 63.921875 
L 10.984375 60.40625 
L 10.984375 69.390625 
L 28.421875 72.90625 
L 38.28125 72.90625 
L 38.28125 8.296875 
L 54.390625 8.296875 
L 54.390625 0 
L 12.40625 0 
z
" id="DejaVuSans-49"/>
       </defs>
       <use xlink:href="#DejaVuSans-49"/>
       <use x="63.623047" xlink:href="#DejaVuSans-48"/>
       <use x="127.246094" xlink:href="#DejaVuSans-48"/>
       <use x="190.869141" xlink:href="#DejaVuSans-48"/>
      </g>
     </g>
    </g>
    <g id="ytick_3">
     <g id="line2d_3">
      <g>
       <use style="stroke:#000000;stroke-width:0.8;" x="54" xlink:href="#mecaf08193e" y="94.052865"/>
      </g>
     </g>
     <g id="text_3">
      <!-- 2000 -->
      <g transform="translate(21.55 97.852084)scale(0.1 -0.1)">
       <defs>
        <path d="M 19.1875 8.296875 
L 53.609375 8.296875 
L 53.609375 0 
L 7.328125 0 
L 7.328125 8.296875 
Q 12.9375 14.109375 22.625 23.890625 
Q 32.328125 33.6875 34.8125 36.53125 
Q 39.546875 41.84375 41.421875 45.53125 
Q 43.3125 49.21875 43.3125 52.78125 
Q 43.3125 58.59375 39.234375 62.25 
Q 35.15625 65.921875 28.609375 65.921875 
Q 23.96875 65.921875 18.8125 64.3125 
Q 13.671875 62.703125 7.8125 59.421875 
L 7.8125 69.390625 
Q 13.765625 71.78125 18.9375 73 
Q 24.125 74.21875 28.421875 74.21875 
Q 39.75 74.21875 46.484375 68.546875 
Q 53.21875 62.890625 53.21875 53.421875 
Q 53.21875 48.921875 51.53125 44.890625 
Q 49.859375 40.875 45.40625 35.40625 
Q 44.1875 33.984375 37.640625 27.21875 
Q 31.109375 20.453125 19.1875 8.296875 
z
" id="DejaVuSans-50"/>
       </defs>
       <use xlink:href="#DejaVuSans-50"/>
       <use x="63.623047" xlink:href="#DejaVuSans-48"/>
       <use x="127.246094" xlink:href="#DejaVuSans-48"/>
       <use x="190.869141" xlink:href="#DejaVuSans-48"/>
      </g>
     </g>
    </g>
    <g id="ytick_4">
     <g id="line2d_4">
      <g>
       <use style="stroke:#000000;stroke-width:0.8;" x="54" xlink:href="#mecaf08193e" y="121.024174"/>
      </g>
     </g>
     <g id="text_4">
      <!-- 3000 -->
      <g transform="translate(21.55 124.823393)scale(0.1 -0.1)">
       <defs>
        <path d="M 40.578125 39.3125 
Q 47.65625 37.796875 51.625 33 
Q 55.609375 28.21875 55.609375 21.1875 
Q 55.609375 10.40625 48.1875 4.484375 
Q 40.765625 -1.421875 27.09375 -1.421875 
Q 22.515625 -1.421875 17.65625 -0.515625 
Q 12.796875 0.390625 7.625 2.203125 
L 7.625 11.71875 
Q 11.71875 9.328125 16.59375 8.109375 
Q 21.484375 6.890625 26.8125 6.890625 
Q 36.078125 6.890625 40.9375 10.546875 
Q 45.796875 14.203125 45.796875 21.1875 
Q 45.796875 27.640625 41.28125 31.265625 
Q 36.765625 34.90625 28.71875 34.90625 
L 20.21875 34.90625 
L 20.21875 43.015625 
L 29.109375 43.015625 
Q 36.375 43.015625 40.234375 45.921875 
Q 44.09375 48.828125 44.09375 54.296875 
Q 44.09375 59.90625 40.109375 62.90625 
Q 36.140625 65.921875 28.71875 65.921875 
Q 24.65625 65.921875 20.015625 65.03125 
Q 15.375 64.15625 9.8125 62.3125 
L 9.8125 71.09375 
Q 15.4375 72.65625 20.34375 73.4375 
Q 25.25 74.21875 29.59375 74.21875 
Q 40.828125 74.21875 47.359375 69.109375 
Q 53.90625 64.015625 53.90625 55.328125 
Q 53.90625 49.265625 50.4375 45.09375 
Q 46.96875 40.921875 40.578125 39.3125 
z
" id="DejaVuSans-51"/>
       </defs>
       <use xlink:href="#DejaVuSans-51"/>
       <use x="63.623047" xlink:href="#DejaVuSans-48"/>
       <use x="127.246094" xlink:href="#DejaVuSans-48"/>
       <use x="190.869141" xlink:href="#DejaVuSans-48"/>
      </g>
     </g>
    </g>
    <g id="ytick_5">
     <g id="line2d_5">
      <g>
       <use style="stroke:#000000;stroke-width:0.8;" x="54" xlink:href="#mecaf08193e" y="147.995484"/>
      </g>
     </g>
     <g id="text_5">
      <!-- 4000 -->
      <g transform="translate(21.55 151.794703)scale(0.1 -0.1)">
       <defs>
        <path d="M 37.796875 64.3125 
L 12.890625 25.390625 
L 37.796875 25.390625 
z
M 35.203125 72.90625 
L 47.609375 72.90625 
L 47.609375 25.390625 
L 58.015625 25.390625 
L 58.015625 17.1875 
L 47.609375 17.1875 
L 47.609375 0 
L 37.796875 0 
L 37.796875 17.1875 
L 4.890625 17.1875 
L 4.890625 26.703125 
z
" id="DejaVuSans-52"/>
       </defs>
       <use xlink:href="#DejaVuSans-52"/>
       <use x="63.623047" xlink:href="#DejaVuSans-48"/>
       <use x="127.246094" xlink:href="#DejaVuSans-48"/>
       <use x="190.869141" xlink:href="#DejaVuSans-48"/>
      </g>
     </g>
    </g>
    <g id="ytick_6">
     <g id="line2d_6">
      <g>
       <use style="stroke:#000000;stroke-width:0.8;" x="54" xlink:href="#mecaf08193e" y="174.966793"/>
      </g>
     </g>
     <g id="text_6">
      <!-- 5000 -->
      <g transform="translate(21.55 178.766012)scale(0.1 -0.1)">
       <defs>
        <path d="M 10.796875 72.90625 
L 49.515625 72.90625 
L 49.515625 64.59375 
L 19.828125 64.59375 
L 19.828125 46.734375 
Q 21.96875 47.46875 24.109375 47.828125 
Q 26.265625 48.1875 28.421875 48.1875 
Q 40.625 48.1875 47.75 41.5 
Q 54.890625 34.8125 54.890625 23.390625 
Q 54.890625 11.625 47.5625 5.09375 
Q 40.234375 -1.421875 26.90625 -1.421875 
Q 22.3125 -1.421875 17.546875 -0.640625 
Q 12.796875 0.140625 7.71875 1.703125 
L 7.71875 11.625 
Q 12.109375 9.234375 16.796875 8.0625 
Q 21.484375 6.890625 26.703125 6.890625 
Q 35.15625 6.890625 40.078125 11.328125 
Q 45.015625 15.765625 45.015625 23.390625 
Q 45.015625 31 40.078125 35.4375 
Q 35.15625 39.890625 26.703125 39.890625 
Q 22.75 39.890625 18.8125 39.015625 
Q 14.890625 38.140625 10.796875 36.28125 
z
" id="DejaVuSans-53"/>
       </defs>
       <use xlink:href="#DejaVuSans-53"/>
       <use x="63.623047" xlink:href="#DejaVuSans-48"/>
       <use x="127.246094" xlink:href="#DejaVuSans-48"/>
       <use x="190.869141" xlink:href="#DejaVuSans-48"/>
      </g>
     </g>
    </g>
    <g id="ytick_7">
     <g id="line2d_7">
      <g>
       <use style="stroke:#000000;stroke-width:0.8;" x="54" xlink:href="#mecaf08193e" y="201.938103"/>
      </g>
     </g>
     <g id="text_7">
      <!-- 6000 -->
      <g transform="translate(21.55 205.737322)scale(0.1 -0.1)">
       <defs>
        <path d="M 33.015625 40.375 
Q 26.375 40.375 22.484375 35.828125 
Q 18.609375 31.296875 18.609375 23.390625 
Q 18.609375 15.53125 22.484375 10.953125 
Q 26.375 6.390625 33.015625 6.390625 
Q 39.65625 6.390625 43.53125 10.953125 
Q 47.40625 15.53125 47.40625 23.390625 
Q 47.40625 31.296875 43.53125 35.828125 
Q 39.65625 40.375 33.015625 40.375 
z
M 52.59375 71.296875 
L 52.59375 62.3125 
Q 48.875 64.0625 45.09375 64.984375 
Q 41.3125 65.921875 37.59375 65.921875 
Q 27.828125 65.921875 22.671875 59.328125 
Q 17.53125 52.734375 16.796875 39.40625 
Q 19.671875 43.65625 24.015625 45.921875 
Q 28.375 48.1875 33.59375 48.1875 
Q 44.578125 48.1875 50.953125 41.515625 
Q 57.328125 34.859375 57.328125 23.390625 
Q 57.328125 12.15625 50.6875 5.359375 
Q 44.046875 -1.421875 33.015625 -1.421875 
Q 20.359375 -1.421875 13.671875 8.265625 
Q 6.984375 17.96875 6.984375 36.375 
Q 6.984375 53.65625 15.1875 63.9375 
Q 23.390625 74.21875 37.203125 74.21875 
Q 40.921875 74.21875 44.703125 73.484375 
Q 48.484375 72.75 52.59375 71.296875 
z
" id="DejaVuSans-54"/>
       </defs>
       <use xlink:href="#DejaVuSans-54"/>
       <use x="63.623047" xlink:href="#DejaVuSans-48"/>
       <use x="127.246094" xlink:href="#DejaVuSans-48"/>
       <use x="190.869141" xlink:href="#DejaVuSans-48"/>
      </g>
     </g>
    </g>
    <g id="ytick_8">
     <g id="line2d_8">
      <g>
       <use style="stroke:#000000;stroke-width:0.8;" x="54" xlink:href="#mecaf08193e" y="228.909412"/>
      </g>
     </g>
     <g id="text_8">
      <!-- 7000 -->
      <g transform="translate(21.55 232.708631)scale(0.1 -0.1)">
       <defs>
        <path d="M 8.203125 72.90625 
L 55.078125 72.90625 
L 55.078125 68.703125 
L 28.609375 0 
L 18.3125 0 
L 43.21875 64.59375 
L 8.203125 64.59375 
z
" id="DejaVuSans-55"/>
       </defs>
       <use xlink:href="#DejaVuSans-55"/>
       <use x="63.623047" xlink:href="#DejaVuSans-48"/>
       <use x="127.246094" xlink:href="#DejaVuSans-48"/>
       <use x="190.869141" xlink:href="#DejaVuSans-48"/>
      </g>
     </g>
    </g>
    <g id="text_9">
     <!-- depth -->
     <g transform="translate(15.470312 157.833906)rotate(-90)scale(0.1 -0.1)">
      <defs>
       <path d="M 45.40625 46.390625 
L 45.40625 75.984375 
L 54.390625 75.984375 
L 54.390625 0 
L 45.40625 0 
L 45.40625 8.203125 
Q 42.578125 3.328125 38.25 0.953125 
Q 33.9375 -1.421875 27.875 -1.421875 
Q 17.96875 -1.421875 11.734375 6.484375 
Q 5.515625 14.40625 5.515625 27.296875 
Q 5.515625 40.1875 11.734375 48.09375 
Q 17.96875 56 27.875 56 
Q 33.9375 56 38.25 53.625 
Q 42.578125 51.265625 45.40625 46.390625 
z
M 14.796875 27.296875 
Q 14.796875 17.390625 18.875 11.75 
Q 22.953125 6.109375 30.078125 6.109375 
Q 37.203125 6.109375 41.296875 11.75 
Q 45.40625 17.390625 45.40625 27.296875 
Q 45.40625 37.203125 41.296875 42.84375 
Q 37.203125 48.484375 30.078125 48.484375 
Q 22.953125 48.484375 18.875 42.84375 
Q 14.796875 37.203125 14.796875 27.296875 
z
" id="DejaVuSans-100"/>
       <path d="M 56.203125 29.59375 
L 56.203125 25.203125 
L 14.890625 25.203125 
Q 15.484375 15.921875 20.484375 11.0625 
Q 25.484375 6.203125 34.421875 6.203125 
Q 39.59375 6.203125 44.453125 7.46875 
Q 49.3125 8.734375 54.109375 11.28125 
L 54.109375 2.78125 
Q 49.265625 0.734375 44.1875 -0.34375 
Q 39.109375 -1.421875 33.890625 -1.421875 
Q 20.796875 -1.421875 13.15625 6.1875 
Q 5.515625 13.8125 5.515625 26.8125 
Q 5.515625 40.234375 12.765625 48.109375 
Q 20.015625 56 32.328125 56 
Q 43.359375 56 49.78125 48.890625 
Q 56.203125 41.796875 56.203125 29.59375 
z
M 47.21875 32.234375 
Q 47.125 39.59375 43.09375 43.984375 
Q 39.0625 48.390625 32.421875 48.390625 
Q 24.90625 48.390625 20.390625 44.140625 
Q 15.875 39.890625 15.1875 32.171875 
z
" id="DejaVuSans-101"/>
       <path d="M 18.109375 8.203125 
L 18.109375 -20.796875 
L 9.078125 -20.796875 
L 9.078125 54.6875 
L 18.109375 54.6875 
L 18.109375 46.390625 
Q 20.953125 51.265625 25.265625 53.625 
Q 29.59375 56 35.59375 56 
Q 45.5625 56 51.78125 48.09375 
Q 58.015625 40.1875 58.015625 27.296875 
Q 58.015625 14.40625 51.78125 6.484375 
Q 45.5625 -1.421875 35.59375 -1.421875 
Q 29.59375 -1.421875 25.265625 0.953125 
Q 20.953125 3.328125 18.109375 8.203125 
z
M 48.6875 27.296875 
Q 48.6875 37.203125 44.609375 42.84375 
Q 40.53125 48.484375 33.40625 48.484375 
Q 26.265625 48.484375 22.1875 42.84375 
Q 18.109375 37.203125 18.109375 27.296875 
Q 18.109375 17.390625 22.1875 11.75 
Q 26.265625 6.109375 33.40625 6.109375 
Q 40.53125 6.109375 44.609375 11.75 
Q 48.6875 17.390625 48.6875 27.296875 
z
" id="DejaVuSans-112"/>
       <path d="M 18.3125 70.21875 
L 18.3125 54.6875 
L 36.8125 54.6875 
L 36.8125 47.703125 
L 18.3125 47.703125 
L 18.3125 18.015625 
Q 18.3125 11.328125 20.140625 9.421875 
Q 21.96875 7.515625 27.59375 7.515625 
L 36.8125 7.515625 
L 36.8125 0 
L 27.59375 0 
Q 17.1875 0 13.234375 3.875 
Q 9.28125 7.765625 9.28125 18.015625 
L 9.28125 47.703125 
L 2.6875 47.703125 
L 2.6875 54.6875 
L 9.28125 54.6875 
L 9.28125 70.21875 
z
" id="DejaVuSans-116"/>
       <path d="M 54.890625 33.015625 
L 54.890625 0 
L 45.90625 0 
L 45.90625 32.71875 
Q 45.90625 40.484375 42.875 44.328125 
Q 39.84375 48.1875 33.796875 48.1875 
Q 26.515625 48.1875 22.3125 43.546875 
Q 18.109375 38.921875 18.109375 30.90625 
L 18.109375 0 
L 9.078125 0 
L 9.078125 75.984375 
L 18.109375 75.984375 
L 18.109375 46.1875 
Q 21.34375 51.125 25.703125 53.5625 
Q 30.078125 56 35.796875 56 
Q 45.21875 56 50.046875 50.171875 
Q 54.890625 44.34375 54.890625 33.015625 
z
" id="DejaVuSans-104"/>
      </defs>
      <use xlink:href="#DejaVuSans-100"/>
      <use x="63.476562" xlink:href="#DejaVuSans-101"/>
      <use x="125" xlink:href="#DejaVuSans-112"/>
      <use x="188.476562" xlink:href="#DejaVuSans-116"/>
      <use x="227.685547" xlink:href="#DejaVuSans-104"/>
     </g>
    </g>
   </g>
   <g id="line2d_9">
    <path clip-path="url(#pffdf218546)" d="M 69.218182 44.52455 
L 69.370592 44.443636 
L 69.980234 45.450565 
L 70.285055 45.945039 
L 70.589876 46.088886 
L 70.894697 46.250714 
L 71.047107 46.547399 
L 71.351928 46.331628 
L 71.504338 45.909078 
L 71.809159 45.783211 
L 72.11398 46.043934 
L 72.26639 46.043934 
L 72.723622 47.041873 
L 73.180853 47.176729 
L 73.638084 47.032882 
L 73.790495 47.176729 
L 74.857368 46.628312 
L 75.162189 46.529418 
L 75.46701 46.826102 
L 75.77183 47.032882 
L 76.229062 47.140767 
L 76.533883 47.293605 
L 76.838704 47.077834 
L 76.991114 47.113796 
L 77.295935 47.491394 
L 77.600756 47.536347 
L 77.905577 47.500385 
L 79.12486 47.922935 
L 80.344143 49.837898 
L 80.648964 50.4942 
L 80.953785 50.413286 
L 81.258606 50.332372 
L 81.563427 50.215497 
L 82.020658 50.134583 
L 82.173069 50.179535 
L 82.325479 49.990736 
L 82.78271 48.830969 
L 83.239942 49.505252 
L 83.392352 49.712032 
L 83.697173 49.568185 
L 84.001994 49.289482 
L 84.154404 49.226549 
L 85.526098 51.393244 
L 86.440561 51.950651 
L 87.202613 52.058536 
L 87.507434 52.301278 
L 87.812255 52.993541 
L 87.964665 53.038494 
L 88.269486 52.777771 
L 89.183949 53.110417 
L 89.336359 53.146379 
L 90.250822 54.728696 
L 90.708053 55.807548 
L 91.012874 56.284041 
L 91.774926 57.012267 
L 92.079747 57.335922 
L 92.689389 57.69554 
L 93.14662 58.369822 
L 94.213493 59.54757 
L 94.823135 59.808292 
L 95.127956 60.194881 
L 95.432776 60.58147 
L 96.194829 61.120896 
L 96.499649 61.570418 
L 96.80447 61.705274 
L 97.109291 61.732246 
L 98.023754 63.05384 
L 98.176164 63.080811 
L 98.480985 62.999897 
L 99.243037 63.215668 
L 99.547858 63.143744 
L 99.700269 63.359515 
L 99.852679 63.368505 
L 100.005089 63.530333 
L 100.1575 63.413457 
L 101.071962 63.827017 
L 101.834015 64.537262 
L 102.596067 64.060769 
L 103.053298 64.420386 
L 103.358119 64.384425 
L 103.81535 64.663128 
L 104.120171 64.573224 
L 105.187044 65.697028 
L 106.101507 65.616114 
L 106.253917 65.562172 
L 106.711149 66.515158 
L 107.16838 67.207422 
L 109.149715 68.708824 
L 109.606947 68.897624 
L 110.521409 69.473012 
L 110.82623 69.634839 
L 111.283462 70.282151 
L 112.045514 70.803596 
L 112.350335 70.938453 
L 112.502745 70.866529 
L 112.959976 70.228208 
L 113.417208 70.372055 
L 114.026849 70.129313 
L 114.484081 69.940514 
L 114.788902 69.796667 
L 115.093722 70.246189 
L 115.398543 70.776625 
L 115.703364 70.965424 
L 116.160595 71.145233 
L 116.617827 71.819515 
L 117.075058 71.927401 
L 117.532289 72.224085 
L 117.989521 72.33197 
L 118.294342 72.475817 
L 118.599162 72.457836 
L 119.818446 75.029101 
L 120.123267 75.757327 
L 120.275677 75.82925 
L 120.580498 76.23382 
L 121.037729 76.548485 
L 121.647371 76.944064 
L 122.561834 78.283639 
L 123.019065 78.436477 
L 123.323886 78.346572 
L 123.933528 78.436477 
L 125.000401 79.056817 
L 125.457632 79.569272 
L 125.914863 80.135669 
L 126.219684 80.621153 
L 126.829326 80.414373 
L 127.134147 80.747019 
L 127.743788 81.268464 
L 128.658251 81.942747 
L 130.029945 82.742896 
L 130.334766 83.093523 
L 130.639587 83.570016 
L 131.096818 83.758815 
L 131.554049 83.965595 
L 131.85887 84.0555 
L 132.925743 84.298241 
L 133.382974 84.603916 
L 133.840206 84.67584 
L 134.449847 85.862577 
L 135.36431 86.11431 
L 135.821541 86.419984 
L 136.278773 86.141281 
L 136.583594 86.384023 
L 136.736004 86.518879 
L 137.193235 87.35499 
L 137.498056 87.319028 
L 137.802877 87.211143 
L 138.107698 87.435904 
L 138.412519 87.660665 
L 138.86975 87.57076 
L 139.631802 86.914458 
L 140.241444 86.914458 
L 140.698675 87.256095 
L 140.851086 87.372971 
L 141.460727 86.986382 
L 141.613138 87.103258 
L 142.37519 88.532737 
L 142.680011 89.296924 
L 143.137242 89.800388 
L 143.289653 90.04313 
L 143.442063 89.998178 
L 143.746884 89.521685 
L 144.051705 89.566637 
L 145.88063 91.373715 
L 146.185451 92.353672 
L 146.490272 93.045936 
L 147.252324 92.974013 
L 147.861966 92.974013 
L 148.319197 92.902089 
L 148.776428 92.875118 
L 148.928839 92.821175 
L 150.148122 95.068784 
L 151.367406 95.644172 
L 151.519816 95.671144 
L 151.977047 96.264512 
L 152.281868 96.192589 
L 152.434279 96.174608 
L 152.7391 97.109613 
L 153.04392 97.981686 
L 153.348741 98.107552 
L 153.805973 98.152504 
L 154.110793 98.350294 
L 154.872846 99.581983 
L 155.177666 99.824725 
L 155.787308 99.635926 
L 156.092129 99.671888 
L 156.24454 99.644916 
L 156.39695 99.860687 
L 157.006592 101.335119 
L 157.768644 102.027382 
L 158.073465 102.171229 
L 158.225875 102.081325 
L 158.530696 102.342047 
L 158.835517 102.827531 
L 159.140338 102.953397 
L 160.0548 102.306086 
L 161.731315 103.672632 
L 162.340957 104.895331 
L 162.645778 105.28192 
L 162.950599 105.821346 
L 163.255419 106.10904 
L 164.322293 106.873227 
L 164.627113 106.864237 
L 165.236755 106.783323 
L 165.693986 107.160921 
L 166.608449 108.068955 
L 167.06568 108.284726 
L 167.980143 108.482516 
L 168.437374 109.057903 
L 168.589785 109.156798 
L 168.894606 108.932037 
L 169.047016 108.752229 
L 170.266299 110.793058 
L 170.41871 111.008828 
L 171.485583 110.945895 
L 172.095225 111.620178 
L 172.400046 112.420327 
L 172.857277 113.661007 
L 173.162098 113.885768 
L 174.686202 113.598074 
L 174.991023 113.202495 
L 175.753075 113.580093 
L 176.057896 113.831825 
L 176.515127 113.831825 
L 177.124769 114.793802 
L 179.106105 115.962559 
L 179.410925 116.115396 
L 180.172978 115.98953 
L 180.782619 116.492994 
L 181.08744 116.475014 
L 181.697082 116.501985 
L 182.001903 116.466023 
L 182.459134 116.861602 
L 182.916365 116.852612 
L 183.373597 117.311124 
L 183.983238 117.895503 
L 185.354932 119.010317 
L 185.659753 118.983345 
L 186.726626 119.684599 
L 187.336268 118.992336 
L 187.641089 119.163154 
L 188.555552 119.711571 
L 189.012783 120.233016 
L 189.317604 120.484748 
L 189.774835 120.682538 
L 189.927245 120.781433 
L 190.536887 120.619605 
L 190.689298 120.430806 
L 190.994118 120.457777 
L 191.298939 120.763452 
L 191.756171 121.203983 
L 192.213402 122.004132 
L 192.670633 122.309807 
L 193.280275 122.750338 
L 193.737506 122.669424 
L 194.042327 122.696396 
L 194.347148 122.624472 
L 194.804379 123.127937 
L 194.95679 123.038032 
L 195.414021 122.408702 
L 195.871252 122.489616 
L 196.176073 122.79529 
L 196.633305 123.595439 
L 197.395357 124.179818 
L 197.700178 123.793229 
L 197.852588 123.847172 
L 198.309819 124.476502 
L 198.919461 125.114823 
L 199.376692 126.229637 
L 199.681513 126.310551 
L 200.748386 127.074738 
L 201.053207 127.074738 
L 201.358028 127.542241 
L 201.510438 127.892868 
L 201.815259 127.874887 
L 201.96767 127.802964 
L 202.882132 128.081667 
L 203.186953 128.027724 
L 203.491774 127.901858 
L 203.949005 128.261476 
L 204.253826 128.315418 
L 204.406237 128.35138 
L 205.015878 128.018734 
L 205.62552 128.297438 
L 205.930341 127.892868 
L 206.082751 127.802964 
L 206.539983 129.070615 
L 206.692393 129.304366 
L 207.149624 130.715865 
L 207.606856 130.796779 
L 208.368908 131.300243 
L 208.521318 131.417119 
L 208.826139 131.938564 
L 209.283371 133.28713 
L 209.893012 134.186173 
L 211.112296 134.779542 
L 211.569527 135.741519 
L 212.48399 136.002242 
L 212.941221 136.550658 
L 214.008094 137.296865 
L 214.160504 137.188979 
L 214.312915 137.233931 
L 214.465325 137.054123 
L 214.617736 137.072104 
L 215.074967 136.748448 
L 215.532198 136.910276 
L 216.14184 137.224941 
L 216.446661 137.557587 
L 216.751482 137.665472 
L 217.208713 137.188979 
L 217.970765 137.629511 
L 218.427997 138.681392 
L 218.732817 138.699373 
L 219.190049 139.094952 
L 219.342459 139.301732 
L 219.49487 139.301732 
L 219.79969 139.041009 
L 219.952101 139.130914 
L 220.409332 139.760244 
L 221.171384 139.778225 
L 221.476205 140.29068 
L 221.781026 140.70424 
L 222.085847 140.740202 
L 222.390668 140.92001 
L 223.00031 141.953911 
L 223.457541 142.160691 
L 224.067183 142.475356 
L 224.372003 142.601222 
L 224.829235 142.511318 
L 224.981645 142.619203 
L 225.438876 142.034825 
L 225.896108 142.376461 
L 226.200929 142.790021 
L 226.81057 144.642051 
L 227.115391 144.965707 
L 228.029854 145.541095 
L 228.639496 146.404177 
L 229.249137 146.089511 
L 230.773242 147.50101 
L 230.925652 147.581924 
L 231.382883 148.220245 
L 231.992525 148.471977 
L 232.297346 148.373082 
L 232.906988 148.966451 
L 233.211809 148.786642 
L 233.516629 148.489958 
L 233.66904 148.678757 
L 234.126271 149.721648 
L 234.431092 149.793571 
L 235.345555 150.647663 
L 235.650376 150.719586 
L 235.955196 150.8005 
L 236.564838 151.41185 
L 236.869659 151.843391 
L 237.631711 151.474783 
L 237.784122 151.519735 
L 238.088943 151.933295 
L 238.393763 152.526664 
L 238.698584 152.66152 
L 239.003405 152.760415 
L 239.613047 153.407727 
L 240.375099 153.758354 
L 240.83233 154.558503 
L 241.137151 154.729321 
L 241.441972 155.043986 
L 241.899203 155.880097 
L 242.204024 155.934039 
L 242.508845 155.970001 
L 243.575718 156.725198 
L 244.642591 157.525347 
L 245.099822 158.235591 
L 245.404643 158.505304 
L 246.014285 159.206558 
L 246.776337 159.728004 
L 247.6908 162.020565 
L 248.148031 161.768833 
L 249.214904 162.029555 
L 249.519725 161.948641 
L 250.129367 162.559991 
L 250.739009 162.919609 
L 251.19624 163.503987 
L 251.34865 163.620863 
L 251.653471 164.007451 
L 251.958292 164.250193 
L 252.110702 164.447983 
L 252.415523 165.248132 
L 252.567934 165.544816 
L 253.025165 165.553806 
L 253.634807 166.25506 
L 254.092038 166.731554 
L 254.396859 166.86641 
L 254.549269 166.758525 
L 255.006501 166.848429 
L 255.158911 166.740544 
L 255.768553 167.801416 
L 256.225784 167.846368 
L 257.140247 168.331851 
L 257.445068 168.268918 
L 257.749888 167.954253 
L 258.054709 168.31387 
L 258.35953 168.754402 
L 258.816762 169.176952 
L 259.578814 170.606432 
L 259.883635 170.660374 
L 260.036045 170.651384 
L 260.645687 171.19081 
L 260.950508 171.109896 
L 262.322201 173.186687 
L 262.627022 173.258611 
L 263.084254 173.780056 
L 263.541485 173.699142 
L 263.846306 173.896931 
L 264.455948 174.211597 
L 264.760768 174.139673 
L 265.065589 173.986836 
L 265.37041 174.013807 
L 265.827641 174.166645 
L 266.284873 174.69708 
L 266.589694 174.589195 
L 267.199335 175.09266 
L 267.504156 175.056698 
L 267.808977 174.751023 
L 268.113798 174.786985 
L 269.180671 175.91978 
L 269.333081 175.856847 
L 269.942723 175.11064 
L 270.095134 175.011746 
L 270.552365 175.128621 
L 271.162007 175.757952 
L 271.619238 176.764881 
L 272.076469 177.124498 
L 272.533701 177.133489 
L 273.143342 177.520077 
L 273.600574 178.544987 
L 273.905394 178.518016 
L 274.210215 178.39215 
L 274.819857 179.084413 
L 275.277088 179.336146 
L 275.73432 179.929514 
L 276.191551 180.522883 
L 276.648782 180.720673 
L 277.106014 180.765625 
L 277.410834 180.65774 
L 278.020476 181.062309 
L 278.782528 180.882501 
L 279.23976 181.134233 
L 279.849401 181.251109 
L 280.306633 180.909472 
L 281.373506 182.50977 
L 282.287968 182.878378 
L 282.440379 182.941311 
L 282.89761 183.498718 
L 283.202431 183.255976 
L 283.507252 182.707559 
L 283.659662 182.491789 
L 285.640998 184.137039 
L 286.098229 184.694446 
L 286.40305 185.125987 
L 286.860281 184.838293 
L 287.317513 185.314786 
L 287.622334 185.494595 
L 287.774744 185.584499 
L 288.231975 185.350748 
L 289.146438 185.674403 
L 289.75608 184.56858 
L 289.90849 184.532618 
L 290.365721 185.027092 
L 290.670542 185.036082 
L 290.975363 185.341757 
L 291.127773 185.593489 
L 291.737415 187.355615 
L 292.042236 187.544414 
L 292.194647 187.580376 
L 292.499467 187.418548 
L 292.804288 187.679271 
L 293.109109 187.823118 
L 293.41393 187.634318 
L 293.871161 187.778165 
L 294.023572 187.706242 
L 294.480803 188.452448 
L 295.395266 189.675148 
L 295.700086 190.322459 
L 295.852497 190.493277 
L 296.157318 190.538229 
L 296.309728 190.637124 
L 296.614549 190.385392 
L 296.76696 190.268516 
L 297.529012 190.888856 
L 297.681422 191.086646 
L 298.291064 190.825923 
L 299.205526 191.36535 
L 299.662758 191.554149 
L 300.2724 191.7879 
L 300.57722 192.084585 
L 300.882041 192.228432 
L 301.491683 191.320397 
L 301.948914 191.095637 
L 302.101325 191.131598 
L 302.863377 191.99468 
L 303.168198 192.291365 
L 303.625429 191.98569 
L 303.93025 192.345307 
L 304.235071 192.624011 
L 304.844713 194.341184 
L 305.149533 194.862629 
L 305.454354 195.779654 
L 305.759175 196.076338 
L 306.368817 196.993363 
L 306.978459 197.76654 
L 307.43569 197.97332 
L 307.740511 198.153129 
L 307.892921 198.153129 
L 308.045332 198.270005 
L 308.502563 199.249962 
L 308.959794 199.375829 
L 309.569436 200.02314 
L 310.026667 199.843331 
L 310.331488 199.969197 
L 310.788719 199.645542 
L 311.09354 199.978188 
L 311.703182 200.149006 
L 312.617645 200.778337 
L 313.532107 201.272811 
L 313.836928 201.803246 
L 314.141749 202.29772 
L 314.44657 202.117912 
L 314.59898 202.063969 
L 314.903801 202.360653 
L 315.361032 202.387625 
L 315.818264 202.837147 
L 316.123085 202.954022 
L 316.732726 203.781142 
L 316.885137 203.844075 
L 318.561652 206.118656 
L 319.018883 206.028752 
L 319.323704 205.956828 
L 319.628525 205.983799 
L 320.238166 206.640101 
L 320.542987 207.02669 
L 320.695398 206.909814 
L 320.847808 206.981738 
L 321.000219 207.179527 
L 321.305039 207.934724 
L 321.914681 208.815787 
L 322.981554 209.876658 
L 323.133965 210.056467 
L 323.286375 210.056467 
L 323.591196 210.452046 
L 323.896017 210.811664 
L 324.505658 211.369071 
L 324.96289 211.845564 
L 325.420121 212.088306 
L 325.877352 212.429942 
L 326.486994 212.214172 
L 326.791815 212.268114 
L 327.249046 212.681675 
L 327.553867 212.708646 
L 327.858688 212.924416 
L 328.46833 212.897445 
L 328.62074 212.681675 
L 329.077972 212.780569 
L 329.535203 212.268114 
L 329.840024 212.259124 
L 331.211718 213.904374 
L 331.821359 214.23702 
L 332.431001 214.947265 
L 332.735822 215.037169 
L 333.193053 215.118083 
L 333.497874 214.65058 
L 333.650285 214.533704 
L 334.412337 215.423758 
L 334.717158 215.252939 
L 335.021978 215.037169 
L 335.47921 215.396786 
L 335.936441 215.522652 
L 336.088851 215.585586 
L 337.003314 216.646457 
L 337.308135 216.628476 
L 337.460545 216.7004 
L 338.527418 218.309688 
L 339.13706 218.237764 
L 339.441881 218.408583 
L 339.746702 218.471516 
L 340.203933 218.55243 
L 340.661164 219.028923 
L 340.965985 219.550368 
L 341.118396 219.59532 
L 341.575627 219.118827 
L 341.880448 219.217722 
L 342.337679 219.361569 
L 343.099731 219.856043 
L 343.404552 220.125756 
L 344.166604 220.997828 
L 344.471425 221.43836 
L 345.690709 222.382356 
L 347.062403 224.000634 
L 347.672044 224.018615 
L 347.824455 223.928711 
L 348.129276 224.297318 
L 348.434097 224.638955 
L 349.043738 224.827754 
L 349.958201 225.753769 
L 350.415432 226.39209 
L 350.720253 226.562908 
L 350.872664 226.517956 
L 351.329895 226.032473 
L 351.787126 226.158339 
L 352.244357 226.787669 
L 352.549178 227.120316 
L 353.15882 227.399019 
L 353.768462 228.163206 
L 354.073283 228.24412 
L 354.378104 228.253111 
L 354.530514 228.352005 
L 354.835335 228.828498 
L 354.987745 229.008307 
L 355.140156 228.927393 
L 355.597387 229.296001 
L 355.902208 229.457829 
L 356.359439 229.799466 
L 356.51185 229.88038 
L 356.81667 230.473748 
L 357.273902 231.32784 
L 357.578723 231.660486 
L 358.035954 231.687457 
L 358.493185 231.93919 
L 358.798006 231.804333 
L 358.950417 231.831304 
L 359.407648 231.32784 
L 359.864879 232.14597 
L 360.626931 232.757319 
L 361.084163 233.404631 
L 361.693804 233.989009 
L 362.151036 234.132856 
L 362.913088 235.004928 
L 363.217909 235.058871 
L 364.132371 235.903972 
L 364.742013 236.88393 
L 365.046834 236.88393 
L 365.656476 236.704121 
L 366.418528 236.67715 
L 366.723349 236.48835 
L 367.33299 237.135662 
L 367.637811 237.342442 
L 368.704684 238.394323 
L 369.009505 238.978701 
L 369.466736 240.318276 
L 369.619147 240.444142 
L 370.228789 240.363229 
L 370.68602 240.614961 
L 371.295662 241.118425 
L 372.057714 241.675832 
L 372.362535 241.558957 
L 373.124587 241.945545 
L 373.429408 241.990498 
L 373.581818 242.116364 
L 373.581818 242.116364 
" style="fill:none;stroke:#ffa500;stroke-linecap:square;stroke-width:1.5;"/>
   </g>
   <g id="patch_3">
    <path d="M 54 252 
L 54 34.56 
" style="fill:none;stroke:#000000;stroke-linecap:square;stroke-linejoin:miter;stroke-width:0.8;"/>
   </g>
   <g id="patch_4">
    <path d="M 388.8 252 
L 388.8 34.56 
" style="fill:none;stroke:#000000;stroke-linecap:square;stroke-linejoin:miter;stroke-width:0.8;"/>
   </g>
   <g id="patch_5">
    <path d="M 54 252 
L 388.8 252 
" style="fill:none;stroke:#000000;stroke-linecap:square;stroke-linejoin:miter;stroke-width:0.8;"/>
   </g>
   <g id="patch_6">
    <path d="M 54 34.56 
L 388.8 34.56 
" style="fill:none;stroke:#000000;stroke-linecap:square;stroke-linejoin:miter;stroke-width:0.8;"/>
   </g>
   <g id="legend_1">
    <g id="patch_7">
     <path d="M 268.439062 57.238125 
L 381.8 57.238125 
Q 383.8 57.238125 383.8 55.238125 
L 383.8 41.56 
Q 383.8 39.56 381.8 39.56 
L 268.439062 39.56 
Q 266.439062 39.56 266.439062 41.56 
L 266.439062 55.238125 
Q 266.439062 57.238125 268.439062 57.238125 
z
" style="fill:#ffffff;opacity:0.8;stroke:#cccccc;stroke-linejoin:miter;"/>
    </g>
    <g id="line2d_10">
     <path d="M 270.439062 47.658437 
L 290.439062 47.658437 
" style="fill:none;stroke:#ffa500;stroke-linecap:square;stroke-width:1.5;"/>
    </g>
    <g id="line2d_11"/>
    <g id="text_10">
     <!-- moving average -->
     <g transform="translate(298.439062 51.158437)scale(0.1 -0.1)">
      <defs>
       <path d="M 52 44.1875 
Q 55.375 50.25 60.0625 53.125 
Q 64.75 56 71.09375 56 
Q 79.640625 56 84.28125 50.015625 
Q 88.921875 44.046875 88.921875 33.015625 
L 88.921875 0 
L 79.890625 0 
L 79.890625 32.71875 
Q 79.890625 40.578125 77.09375 44.375 
Q 74.3125 48.1875 68.609375 48.1875 
Q 61.625 48.1875 57.5625 43.546875 
Q 53.515625 38.921875 53.515625 30.90625 
L 53.515625 0 
L 44.484375 0 
L 44.484375 32.71875 
Q 44.484375 40.625 41.703125 44.40625 
Q 38.921875 48.1875 33.109375 48.1875 
Q 26.21875 48.1875 22.15625 43.53125 
Q 18.109375 38.875 18.109375 30.90625 
L 18.109375 0 
L 9.078125 0 
L 9.078125 54.6875 
L 18.109375 54.6875 
L 18.109375 46.1875 
Q 21.1875 51.21875 25.484375 53.609375 
Q 29.78125 56 35.6875 56 
Q 41.65625 56 45.828125 52.96875 
Q 50 49.953125 52 44.1875 
z
" id="DejaVuSans-109"/>
       <path d="M 30.609375 48.390625 
Q 23.390625 48.390625 19.1875 42.75 
Q 14.984375 37.109375 14.984375 27.296875 
Q 14.984375 17.484375 19.15625 11.84375 
Q 23.34375 6.203125 30.609375 6.203125 
Q 37.796875 6.203125 41.984375 11.859375 
Q 46.1875 17.53125 46.1875 27.296875 
Q 46.1875 37.015625 41.984375 42.703125 
Q 37.796875 48.390625 30.609375 48.390625 
z
M 30.609375 56 
Q 42.328125 56 49.015625 48.375 
Q 55.71875 40.765625 55.71875 27.296875 
Q 55.71875 13.875 49.015625 6.21875 
Q 42.328125 -1.421875 30.609375 -1.421875 
Q 18.84375 -1.421875 12.171875 6.21875 
Q 5.515625 13.875 5.515625 27.296875 
Q 5.515625 40.765625 12.171875 48.375 
Q 18.84375 56 30.609375 56 
z
" id="DejaVuSans-111"/>
       <path d="M 2.984375 54.6875 
L 12.5 54.6875 
L 29.59375 8.796875 
L 46.6875 54.6875 
L 56.203125 54.6875 
L 35.6875 0 
L 23.484375 0 
z
" id="DejaVuSans-118"/>
       <path d="M 9.421875 54.6875 
L 18.40625 54.6875 
L 18.40625 0 
L 9.421875 0 
z
M 9.421875 75.984375 
L 18.40625 75.984375 
L 18.40625 64.59375 
L 9.421875 64.59375 
z
" id="DejaVuSans-105"/>
       <path d="M 54.890625 33.015625 
L 54.890625 0 
L 45.90625 0 
L 45.90625 32.71875 
Q 45.90625 40.484375 42.875 44.328125 
Q 39.84375 48.1875 33.796875 48.1875 
Q 26.515625 48.1875 22.3125 43.546875 
Q 18.109375 38.921875 18.109375 30.90625 
L 18.109375 0 
L 9.078125 0 
L 9.078125 54.6875 
L 18.109375 54.6875 
L 18.109375 46.1875 
Q 21.34375 51.125 25.703125 53.5625 
Q 30.078125 56 35.796875 56 
Q 45.21875 56 50.046875 50.171875 
Q 54.890625 44.34375 54.890625 33.015625 
z
" id="DejaVuSans-110"/>
       <path d="M 45.40625 27.984375 
Q 45.40625 37.75 41.375 43.109375 
Q 37.359375 48.484375 30.078125 48.484375 
Q 22.859375 48.484375 18.828125 43.109375 
Q 14.796875 37.75 14.796875 27.984375 
Q 14.796875 18.265625 18.828125 12.890625 
Q 22.859375 7.515625 30.078125 7.515625 
Q 37.359375 7.515625 41.375 12.890625 
Q 45.40625 18.265625 45.40625 27.984375 
z
M 54.390625 6.78125 
Q 54.390625 -7.171875 48.1875 -13.984375 
Q 42 -20.796875 29.203125 -20.796875 
Q 24.46875 -20.796875 20.265625 -20.09375 
Q 16.0625 -19.390625 12.109375 -17.921875 
L 12.109375 -9.1875 
Q 16.0625 -11.328125 19.921875 -12.34375 
Q 23.78125 -13.375 27.78125 -13.375 
Q 36.625 -13.375 41.015625 -8.765625 
Q 45.40625 -4.15625 45.40625 5.171875 
L 45.40625 9.625 
Q 42.625 4.78125 38.28125 2.390625 
Q 33.9375 0 27.875 0 
Q 17.828125 0 11.671875 7.65625 
Q 5.515625 15.328125 5.515625 27.984375 
Q 5.515625 40.671875 11.671875 48.328125 
Q 17.828125 56 27.875 56 
Q 33.9375 56 38.28125 53.609375 
Q 42.625 51.21875 45.40625 46.390625 
L 45.40625 54.6875 
L 54.390625 54.6875 
z
" id="DejaVuSans-103"/>
       <path id="DejaVuSans-32"/>
       <path d="M 34.28125 27.484375 
Q 23.390625 27.484375 19.1875 25 
Q 14.984375 22.515625 14.984375 16.5 
Q 14.984375 11.71875 18.140625 8.90625 
Q 21.296875 6.109375 26.703125 6.109375 
Q 34.1875 6.109375 38.703125 11.40625 
Q 43.21875 16.703125 43.21875 25.484375 
L 43.21875 27.484375 
z
M 52.203125 31.203125 
L 52.203125 0 
L 43.21875 0 
L 43.21875 8.296875 
Q 40.140625 3.328125 35.546875 0.953125 
Q 30.953125 -1.421875 24.3125 -1.421875 
Q 15.921875 -1.421875 10.953125 3.296875 
Q 6 8.015625 6 15.921875 
Q 6 25.140625 12.171875 29.828125 
Q 18.359375 34.515625 30.609375 34.515625 
L 43.21875 34.515625 
L 43.21875 35.40625 
Q 43.21875 41.609375 39.140625 45 
Q 35.0625 48.390625 27.6875 48.390625 
Q 23 48.390625 18.546875 47.265625 
Q 14.109375 46.140625 10.015625 43.890625 
L 10.015625 52.203125 
Q 14.9375 54.109375 19.578125 55.046875 
Q 24.21875 56 28.609375 56 
Q 40.484375 56 46.34375 49.84375 
Q 52.203125 43.703125 52.203125 31.203125 
z
" id="DejaVuSans-97"/>
       <path d="M 41.109375 46.296875 
Q 39.59375 47.171875 37.8125 47.578125 
Q 36.03125 48 33.890625 48 
Q 26.265625 48 22.1875 43.046875 
Q 18.109375 38.09375 18.109375 28.8125 
L 18.109375 0 
L 9.078125 0 
L 9.078125 54.6875 
L 18.109375 54.6875 
L 18.109375 46.1875 
Q 20.953125 51.171875 25.484375 53.578125 
Q 30.03125 56 36.53125 56 
Q 37.453125 56 38.578125 55.875 
Q 39.703125 55.765625 41.0625 55.515625 
z
" id="DejaVuSans-114"/>
      </defs>
      <use xlink:href="#DejaVuSans-109"/>
      <use x="97.412109" xlink:href="#DejaVuSans-111"/>
      <use x="158.59375" xlink:href="#DejaVuSans-118"/>
      <use x="217.773438" xlink:href="#DejaVuSans-105"/>
      <use x="245.556641" xlink:href="#DejaVuSans-110"/>
      <use x="308.935547" xlink:href="#DejaVuSans-103"/>
      <use x="372.412109" xlink:href="#DejaVuSans-32"/>
      <use x="404.199219" xlink:href="#DejaVuSans-97"/>
      <use x="465.478516" xlink:href="#DejaVuSans-118"/>
      <use x="524.658203" xlink:href="#DejaVuSans-101"/>
      <use x="586.181641" xlink:href="#DejaVuSans-114"/>
      <use x="627.294922" xlink:href="#DejaVuSans-97"/>
      <use x="688.574219" xlink:href="#DejaVuSans-103"/>
      <use x="752.050781" xlink:href="#DejaVuSans-101"/>
     </g>
    </g>
   </g>
  </g>
 </g>
 <defs>
  <clipPath id="pffdf218546">
   <rect height="217.44" width="334.8" x="54" y="34.56"/>
  </clipPath>
 </defs>
</svg>
