<?xml version="1.0" encoding="utf-8" standalone="no"?>
<!DOCTYPE svg PUBLIC "-//W3C//DTD SVG 1.1//EN"
  "http://www.w3.org/Graphics/SVG/1.1/DTD/svg11.dtd">
<!-- Created with matplotlib (https://matplotlib.org/) -->
<svg height="288pt" version="1.1" viewBox="0 0 432 288" width="432pt" xmlns="http://www.w3.org/2000/svg" xmlns:xlink="http://www.w3.org/1999/xlink">
 <metadata>
  <rdf:RDF xmlns:cc="http://creativecommons.org/ns#" xmlns:dc="http://purl.org/dc/elements/1.1/" xmlns:rdf="http://www.w3.org/1999/02/22-rdf-syntax-ns#">
   <cc:Work>
    <dc:type rdf:resource="http://purl.org/dc/dcmitype/StillImage"/>
    <dc:date>2021-12-02T15:45:54.105772</dc:date>
    <dc:format>image/svg+xml</dc:format>
    <dc:creator>
     <cc:Agent>
      <dc:title>Matplotlib v3.3.2, https://matplotlib.org/</dc:title>
     </cc:Agent>
    </dc:creator>
   </cc:Work>
  </rdf:RDF>
 </metadata>
 <defs>
  <style type="text/css">*{stroke-linecap:butt;stroke-linejoin:round;}</style>
 </defs>
 <g id="figure_1">
  <g id="patch_1">
   <path d="M 0 288 
L 432 288 
L 432 0 
L 0 0 
z
" style="fill:none;"/>
  </g>
  <g id="axes_1">
   <g id="patch_2">
    <path d="M 54 252 
L 388.8 252 
L 388.8 34.56 
L 54 34.56 
z
" style="fill:#ffffff;"/>
   </g>
   <g id="matplotlib.axis_1">
    <g id="ytick_1">
     <g id="line2d_1">
      <defs>
       <path d="M 0 0 
L -3.5 0 
" id="m5d5a17b6e1" style="stroke:#000000;stroke-width:0.8;"/>
      </defs>
      <g>
       <use style="stroke:#000000;stroke-width:0.8;" x="54" xlink:href="#m5d5a17b6e1" y="40.352928"/>
      </g>
     </g>
     <g id="text_1">
      <!-- 0 -->
      <g transform="translate(40.6375 44.152147)scale(0.1 -0.1)">
       <defs>
        <path d="M 31.78125 66.40625 
Q 24.171875 66.40625 20.328125 58.90625 
Q 16.5 51.421875 16.5 36.375 
Q 16.5 21.390625 20.328125 13.890625 
Q 24.171875 6.390625 31.78125 6.390625 
Q 39.453125 6.390625 43.28125 13.890625 
Q 47.125 21.390625 47.125 36.375 
Q 47.125 51.421875 43.28125 58.90625 
Q 39.453125 66.40625 31.78125 66.40625 
z
M 31.78125 74.21875 
Q 44.046875 74.21875 50.515625 64.515625 
Q 56.984375 54.828125 56.984375 36.375 
Q 56.984375 17.96875 50.515625 8.265625 
Q 44.046875 -1.421875 31.78125 -1.421875 
Q 19.53125 -1.421875 13.0625 8.265625 
Q 6.59375 17.96875 6.59375 36.375 
Q 6.59375 54.828125 13.0625 64.515625 
Q 19.53125 74.21875 31.78125 74.21875 
z
" id="DejaVuSans-48"/>
       </defs>
       <use xlink:href="#DejaVuSans-48"/>
      </g>
     </g>
    </g>
    <g id="ytick_2">
     <g id="line2d_2">
      <g>
       <use style="stroke:#000000;stroke-width:0.8;" x="54" xlink:href="#m5d5a17b6e1" y="67.265484"/>
      </g>
     </g>
     <g id="text_2">
      <!-- 1000 -->
      <g transform="translate(21.55 71.064703)scale(0.1 -0.1)">
       <defs>
        <path d="M 12.40625 8.296875 
L 28.515625 8.296875 
L 28.515625 63.921875 
L 10.984375 60.40625 
L 10.984375 69.390625 
L 28.421875 72.90625 
L 38.28125 72.90625 
L 38.28125 8.296875 
L 54.390625 8.296875 
L 54.390625 0 
L 12.40625 0 
z
" id="DejaVuSans-49"/>
       </defs>
       <use xlink:href="#DejaVuSans-49"/>
       <use x="63.623047" xlink:href="#DejaVuSans-48"/>
       <use x="127.246094" xlink:href="#DejaVuSans-48"/>
       <use x="190.869141" xlink:href="#DejaVuSans-48"/>
      </g>
     </g>
    </g>
    <g id="ytick_3">
     <g id="line2d_3">
      <g>
       <use style="stroke:#000000;stroke-width:0.8;" x="54" xlink:href="#m5d5a17b6e1" y="94.178041"/>
      </g>
     </g>
     <g id="text_3">
      <!-- 2000 -->
      <g transform="translate(21.55 97.977259)scale(0.1 -0.1)">
       <defs>
        <path d="M 19.1875 8.296875 
L 53.609375 8.296875 
L 53.609375 0 
L 7.328125 0 
L 7.328125 8.296875 
Q 12.9375 14.109375 22.625 23.890625 
Q 32.328125 33.6875 34.8125 36.53125 
Q 39.546875 41.84375 41.421875 45.53125 
Q 43.3125 49.21875 43.3125 52.78125 
Q 43.3125 58.59375 39.234375 62.25 
Q 35.15625 65.921875 28.609375 65.921875 
Q 23.96875 65.921875 18.8125 64.3125 
Q 13.671875 62.703125 7.8125 59.421875 
L 7.8125 69.390625 
Q 13.765625 71.78125 18.9375 73 
Q 24.125 74.21875 28.421875 74.21875 
Q 39.75 74.21875 46.484375 68.546875 
Q 53.21875 62.890625 53.21875 53.421875 
Q 53.21875 48.921875 51.53125 44.890625 
Q 49.859375 40.875 45.40625 35.40625 
Q 44.1875 33.984375 37.640625 27.21875 
Q 31.109375 20.453125 19.1875 8.296875 
z
" id="DejaVuSans-50"/>
       </defs>
       <use xlink:href="#DejaVuSans-50"/>
       <use x="63.623047" xlink:href="#DejaVuSans-48"/>
       <use x="127.246094" xlink:href="#DejaVuSans-48"/>
       <use x="190.869141" xlink:href="#DejaVuSans-48"/>
      </g>
     </g>
    </g>
    <g id="ytick_4">
     <g id="line2d_4">
      <g>
       <use style="stroke:#000000;stroke-width:0.8;" x="54" xlink:href="#m5d5a17b6e1" y="121.090597"/>
      </g>
     </g>
     <g id="text_4">
      <!-- 3000 -->
      <g transform="translate(21.55 124.889816)scale(0.1 -0.1)">
       <defs>
        <path d="M 40.578125 39.3125 
Q 47.65625 37.796875 51.625 33 
Q 55.609375 28.21875 55.609375 21.1875 
Q 55.609375 10.40625 48.1875 4.484375 
Q 40.765625 -1.421875 27.09375 -1.421875 
Q 22.515625 -1.421875 17.65625 -0.515625 
Q 12.796875 0.390625 7.625 2.203125 
L 7.625 11.71875 
Q 11.71875 9.328125 16.59375 8.109375 
Q 21.484375 6.890625 26.8125 6.890625 
Q 36.078125 6.890625 40.9375 10.546875 
Q 45.796875 14.203125 45.796875 21.1875 
Q 45.796875 27.640625 41.28125 31.265625 
Q 36.765625 34.90625 28.71875 34.90625 
L 20.21875 34.90625 
L 20.21875 43.015625 
L 29.109375 43.015625 
Q 36.375 43.015625 40.234375 45.921875 
Q 44.09375 48.828125 44.09375 54.296875 
Q 44.09375 59.90625 40.109375 62.90625 
Q 36.140625 65.921875 28.71875 65.921875 
Q 24.65625 65.921875 20.015625 65.03125 
Q 15.375 64.15625 9.8125 62.3125 
L 9.8125 71.09375 
Q 15.4375 72.65625 20.34375 73.4375 
Q 25.25 74.21875 29.59375 74.21875 
Q 40.828125 74.21875 47.359375 69.109375 
Q 53.90625 64.015625 53.90625 55.328125 
Q 53.90625 49.265625 50.4375 45.09375 
Q 46.96875 40.921875 40.578125 39.3125 
z
" id="DejaVuSans-51"/>
       </defs>
       <use xlink:href="#DejaVuSans-51"/>
       <use x="63.623047" xlink:href="#DejaVuSans-48"/>
       <use x="127.246094" xlink:href="#DejaVuSans-48"/>
       <use x="190.869141" xlink:href="#DejaVuSans-48"/>
      </g>
     </g>
    </g>
    <g id="ytick_5">
     <g id="line2d_5">
      <g>
       <use style="stroke:#000000;stroke-width:0.8;" x="54" xlink:href="#m5d5a17b6e1" y="148.003154"/>
      </g>
     </g>
     <g id="text_5">
      <!-- 4000 -->
      <g transform="translate(21.55 151.802372)scale(0.1 -0.1)">
       <defs>
        <path d="M 37.796875 64.3125 
L 12.890625 25.390625 
L 37.796875 25.390625 
z
M 35.203125 72.90625 
L 47.609375 72.90625 
L 47.609375 25.390625 
L 58.015625 25.390625 
L 58.015625 17.1875 
L 47.609375 17.1875 
L 47.609375 0 
L 37.796875 0 
L 37.796875 17.1875 
L 4.890625 17.1875 
L 4.890625 26.703125 
z
" id="DejaVuSans-52"/>
       </defs>
       <use xlink:href="#DejaVuSans-52"/>
       <use x="63.623047" xlink:href="#DejaVuSans-48"/>
       <use x="127.246094" xlink:href="#DejaVuSans-48"/>
       <use x="190.869141" xlink:href="#DejaVuSans-48"/>
      </g>
     </g>
    </g>
    <g id="ytick_6">
     <g id="line2d_6">
      <g>
       <use style="stroke:#000000;stroke-width:0.8;" x="54" xlink:href="#m5d5a17b6e1" y="174.91571"/>
      </g>
     </g>
     <g id="text_6">
      <!-- 5000 -->
      <g transform="translate(21.55 178.714929)scale(0.1 -0.1)">
       <defs>
        <path d="M 10.796875 72.90625 
L 49.515625 72.90625 
L 49.515625 64.59375 
L 19.828125 64.59375 
L 19.828125 46.734375 
Q 21.96875 47.46875 24.109375 47.828125 
Q 26.265625 48.1875 28.421875 48.1875 
Q 40.625 48.1875 47.75 41.5 
Q 54.890625 34.8125 54.890625 23.390625 
Q 54.890625 11.625 47.5625 5.09375 
Q 40.234375 -1.421875 26.90625 -1.421875 
Q 22.3125 -1.421875 17.546875 -0.640625 
Q 12.796875 0.140625 7.71875 1.703125 
L 7.71875 11.625 
Q 12.109375 9.234375 16.796875 8.0625 
Q 21.484375 6.890625 26.703125 6.890625 
Q 35.15625 6.890625 40.078125 11.328125 
Q 45.015625 15.765625 45.015625 23.390625 
Q 45.015625 31 40.078125 35.4375 
Q 35.15625 39.890625 26.703125 39.890625 
Q 22.75 39.890625 18.8125 39.015625 
Q 14.890625 38.140625 10.796875 36.28125 
z
" id="DejaVuSans-53"/>
       </defs>
       <use xlink:href="#DejaVuSans-53"/>
       <use x="63.623047" xlink:href="#DejaVuSans-48"/>
       <use x="127.246094" xlink:href="#DejaVuSans-48"/>
       <use x="190.869141" xlink:href="#DejaVuSans-48"/>
      </g>
     </g>
    </g>
    <g id="ytick_7">
     <g id="line2d_7">
      <g>
       <use style="stroke:#000000;stroke-width:0.8;" x="54" xlink:href="#m5d5a17b6e1" y="201.828267"/>
      </g>
     </g>
     <g id="text_7">
      <!-- 6000 -->
      <g transform="translate(21.55 205.627485)scale(0.1 -0.1)">
       <defs>
        <path d="M 33.015625 40.375 
Q 26.375 40.375 22.484375 35.828125 
Q 18.609375 31.296875 18.609375 23.390625 
Q 18.609375 15.53125 22.484375 10.953125 
Q 26.375 6.390625 33.015625 6.390625 
Q 39.65625 6.390625 43.53125 10.953125 
Q 47.40625 15.53125 47.40625 23.390625 
Q 47.40625 31.296875 43.53125 35.828125 
Q 39.65625 40.375 33.015625 40.375 
z
M 52.59375 71.296875 
L 52.59375 62.3125 
Q 48.875 64.0625 45.09375 64.984375 
Q 41.3125 65.921875 37.59375 65.921875 
Q 27.828125 65.921875 22.671875 59.328125 
Q 17.53125 52.734375 16.796875 39.40625 
Q 19.671875 43.65625 24.015625 45.921875 
Q 28.375 48.1875 33.59375 48.1875 
Q 44.578125 48.1875 50.953125 41.515625 
Q 57.328125 34.859375 57.328125 23.390625 
Q 57.328125 12.15625 50.6875 5.359375 
Q 44.046875 -1.421875 33.015625 -1.421875 
Q 20.359375 -1.421875 13.671875 8.265625 
Q 6.984375 17.96875 6.984375 36.375 
Q 6.984375 53.65625 15.1875 63.9375 
Q 23.390625 74.21875 37.203125 74.21875 
Q 40.921875 74.21875 44.703125 73.484375 
Q 48.484375 72.75 52.59375 71.296875 
z
" id="DejaVuSans-54"/>
       </defs>
       <use xlink:href="#DejaVuSans-54"/>
       <use x="63.623047" xlink:href="#DejaVuSans-48"/>
       <use x="127.246094" xlink:href="#DejaVuSans-48"/>
       <use x="190.869141" xlink:href="#DejaVuSans-48"/>
      </g>
     </g>
    </g>
    <g id="ytick_8">
     <g id="line2d_8">
      <g>
       <use style="stroke:#000000;stroke-width:0.8;" x="54" xlink:href="#m5d5a17b6e1" y="228.740823"/>
      </g>
     </g>
     <g id="text_8">
      <!-- 7000 -->
      <g transform="translate(21.55 232.540042)scale(0.1 -0.1)">
       <defs>
        <path d="M 8.203125 72.90625 
L 55.078125 72.90625 
L 55.078125 68.703125 
L 28.609375 0 
L 18.3125 0 
L 43.21875 64.59375 
L 8.203125 64.59375 
z
" id="DejaVuSans-55"/>
       </defs>
       <use xlink:href="#DejaVuSans-55"/>
       <use x="63.623047" xlink:href="#DejaVuSans-48"/>
       <use x="127.246094" xlink:href="#DejaVuSans-48"/>
       <use x="190.869141" xlink:href="#DejaVuSans-48"/>
      </g>
     </g>
    </g>
    <g id="text_9">
     <!-- depth -->
     <g transform="translate(15.470312 157.833906)rotate(-90)scale(0.1 -0.1)">
      <defs>
       <path d="M 45.40625 46.390625 
L 45.40625 75.984375 
L 54.390625 75.984375 
L 54.390625 0 
L 45.40625 0 
L 45.40625 8.203125 
Q 42.578125 3.328125 38.25 0.953125 
Q 33.9375 -1.421875 27.875 -1.421875 
Q 17.96875 -1.421875 11.734375 6.484375 
Q 5.515625 14.40625 5.515625 27.296875 
Q 5.515625 40.1875 11.734375 48.09375 
Q 17.96875 56 27.875 56 
Q 33.9375 56 38.25 53.625 
Q 42.578125 51.265625 45.40625 46.390625 
z
M 14.796875 27.296875 
Q 14.796875 17.390625 18.875 11.75 
Q 22.953125 6.109375 30.078125 6.109375 
Q 37.203125 6.109375 41.296875 11.75 
Q 45.40625 17.390625 45.40625 27.296875 
Q 45.40625 37.203125 41.296875 42.84375 
Q 37.203125 48.484375 30.078125 48.484375 
Q 22.953125 48.484375 18.875 42.84375 
Q 14.796875 37.203125 14.796875 27.296875 
z
" id="DejaVuSans-100"/>
       <path d="M 56.203125 29.59375 
L 56.203125 25.203125 
L 14.890625 25.203125 
Q 15.484375 15.921875 20.484375 11.0625 
Q 25.484375 6.203125 34.421875 6.203125 
Q 39.59375 6.203125 44.453125 7.46875 
Q 49.3125 8.734375 54.109375 11.28125 
L 54.109375 2.78125 
Q 49.265625 0.734375 44.1875 -0.34375 
Q 39.109375 -1.421875 33.890625 -1.421875 
Q 20.796875 -1.421875 13.15625 6.1875 
Q 5.515625 13.8125 5.515625 26.8125 
Q 5.515625 40.234375 12.765625 48.109375 
Q 20.015625 56 32.328125 56 
Q 43.359375 56 49.78125 48.890625 
Q 56.203125 41.796875 56.203125 29.59375 
z
M 47.21875 32.234375 
Q 47.125 39.59375 43.09375 43.984375 
Q 39.0625 48.390625 32.421875 48.390625 
Q 24.90625 48.390625 20.390625 44.140625 
Q 15.875 39.890625 15.1875 32.171875 
z
" id="DejaVuSans-101"/>
       <path d="M 18.109375 8.203125 
L 18.109375 -20.796875 
L 9.078125 -20.796875 
L 9.078125 54.6875 
L 18.109375 54.6875 
L 18.109375 46.390625 
Q 20.953125 51.265625 25.265625 53.625 
Q 29.59375 56 35.59375 56 
Q 45.5625 56 51.78125 48.09375 
Q 58.015625 40.1875 58.015625 27.296875 
Q 58.015625 14.40625 51.78125 6.484375 
Q 45.5625 -1.421875 35.59375 -1.421875 
Q 29.59375 -1.421875 25.265625 0.953125 
Q 20.953125 3.328125 18.109375 8.203125 
z
M 48.6875 27.296875 
Q 48.6875 37.203125 44.609375 42.84375 
Q 40.53125 48.484375 33.40625 48.484375 
Q 26.265625 48.484375 22.1875 42.84375 
Q 18.109375 37.203125 18.109375 27.296875 
Q 18.109375 17.390625 22.1875 11.75 
Q 26.265625 6.109375 33.40625 6.109375 
Q 40.53125 6.109375 44.609375 11.75 
Q 48.6875 17.390625 48.6875 27.296875 
z
" id="DejaVuSans-112"/>
       <path d="M 18.3125 70.21875 
L 18.3125 54.6875 
L 36.8125 54.6875 
L 36.8125 47.703125 
L 18.3125 47.703125 
L 18.3125 18.015625 
Q 18.3125 11.328125 20.140625 9.421875 
Q 21.96875 7.515625 27.59375 7.515625 
L 36.8125 7.515625 
L 36.8125 0 
L 27.59375 0 
Q 17.1875 0 13.234375 3.875 
Q 9.28125 7.765625 9.28125 18.015625 
L 9.28125 47.703125 
L 2.6875 47.703125 
L 2.6875 54.6875 
L 9.28125 54.6875 
L 9.28125 70.21875 
z
" id="DejaVuSans-116"/>
       <path d="M 54.890625 33.015625 
L 54.890625 0 
L 45.90625 0 
L 45.90625 32.71875 
Q 45.90625 40.484375 42.875 44.328125 
Q 39.84375 48.1875 33.796875 48.1875 
Q 26.515625 48.1875 22.3125 43.546875 
Q 18.109375 38.921875 18.109375 30.90625 
L 18.109375 0 
L 9.078125 0 
L 9.078125 75.984375 
L 18.109375 75.984375 
L 18.109375 46.1875 
Q 21.34375 51.125 25.703125 53.5625 
Q 30.078125 56 35.796875 56 
Q 45.21875 56 50.046875 50.171875 
Q 54.890625 44.34375 54.890625 33.015625 
z
" id="DejaVuSans-104"/>
      </defs>
      <use xlink:href="#DejaVuSans-100"/>
      <use x="63.476562" xlink:href="#DejaVuSans-101"/>
      <use x="125" xlink:href="#DejaVuSans-112"/>
      <use x="188.476562" xlink:href="#DejaVuSans-116"/>
      <use x="227.685547" xlink:href="#DejaVuSans-104"/>
     </g>
    </g>
   </g>
   <g id="line2d_9">
    <path clip-path="url(#pbaf81f5f69)" d="M 69.218182 45.197188 
L 69.37044 44.443636 
L 69.827214 45.143363 
L 69.979472 44.90115 
L 70.13173 46.05839 
L 70.436245 46.112215 
L 70.740761 46.488991 
L 70.893019 46.139127 
L 71.349793 47.027242 
L 71.502051 46.27369 
L 71.654309 46.38134 
L 71.806567 45.762352 
L 72.111083 46.219865 
L 72.263341 46.192953 
L 72.415599 46.408253 
L 72.567857 46.219865 
L 72.720115 47.21563 
L 73.481404 47.43093 
L 73.633662 47.188717 
L 73.78592 47.21563 
L 74.090436 47.619318 
L 74.242694 47.027242 
L 74.699468 47.32328 
L 74.851726 46.892679 
L 75.156242 46.811941 
L 75.3085 46.623553 
L 75.917531 47.296367 
L 76.222047 47.296367 
L 76.526563 47.43093 
L 76.678821 47.726968 
L 76.983337 47.027242 
L 77.135595 47.484755 
L 77.287853 47.511668 
L 77.592369 47.861531 
L 77.744627 47.700056 
L 79.114948 48.049919 
L 79.419464 48.265219 
L 79.571722 48.69582 
L 79.876238 48.911121 
L 80.48527 49.987623 
L 80.789786 50.741175 
L 80.942044 50.875737 
L 81.094302 50.498962 
L 81.703333 50.498962 
L 81.855591 50.283661 
L 82.160107 50.445136 
L 82.312365 50.256749 
L 82.464623 50.498962 
L 82.921397 48.803471 
L 83.073655 49.422459 
L 83.225913 49.449372 
L 83.530429 49.933798 
L 83.682687 50.068361 
L 83.834945 49.63776 
L 83.987203 49.664672 
L 84.139461 49.422459 
L 84.443977 49.476284 
L 84.596234 50.176011 
L 84.748492 50.310574 
L 84.90075 50.256749 
L 85.053008 50.660437 
L 85.205266 50.687349 
L 85.509782 51.548551 
L 85.814298 51.710027 
L 86.42333 52.140628 
L 86.880104 52.140628 
L 87.18462 52.16754 
L 87.793651 52.759616 
L 87.945909 53.513168 
L 88.098167 53.351693 
L 88.250425 52.894179 
L 88.554941 53.055654 
L 89.620747 53.405518 
L 89.773005 54.078332 
L 89.925263 54.132157 
L 90.382036 54.858796 
L 90.686552 55.85456 
L 90.991068 56.150598 
L 91.143326 56.68885 
L 91.447842 56.527374 
L 91.6001 56.931063 
L 91.752358 56.90415 
L 92.056874 57.442401 
L 92.513648 57.684614 
L 92.665906 57.630789 
L 92.970422 58.16904 
L 93.12268 58.142128 
L 93.274937 58.841854 
L 93.579453 58.707291 
L 93.883969 59.460843 
L 94.036227 59.514668 
L 94.188485 59.756881 
L 94.645259 59.891444 
L 94.797517 60.106744 
L 95.102033 59.945269 
L 95.254291 60.59117 
L 95.558807 60.752646 
L 95.711065 60.941033 
L 96.167838 60.967946 
L 96.472354 61.613847 
L 96.77687 61.85606 
L 97.233644 61.909886 
L 97.385902 61.936798 
L 97.53816 62.69035 
L 97.842676 62.744175 
L 98.147192 63.443901 
L 98.451708 63.147863 
L 98.603966 63.120951 
L 98.908482 63.336251 
L 99.060739 63.309338 
L 99.212997 63.470814 
L 99.517513 63.390076 
L 99.669771 63.443901 
L 99.822029 63.174776 
L 99.974287 64.035977 
L 100.126545 63.470814 
L 100.431061 63.686114 
L 100.583319 63.632289 
L 100.735577 63.713027 
L 100.887835 63.982152 
L 101.192351 63.982152 
L 101.344609 64.116715 
L 101.801383 64.816442 
L 101.95364 64.897179 
L 102.105898 64.466578 
L 102.258156 64.493491 
L 102.410414 64.17054 
L 102.71493 64.17054 
L 103.171704 64.654966 
L 103.47622 64.466578 
L 103.932994 64.951004 
L 104.085252 64.708791 
L 104.23751 64.681879 
L 105.151057 65.919856 
L 105.303315 65.839119 
L 105.607831 65.919856 
L 105.760089 65.812206 
L 106.064605 65.839119 
L 106.521379 65.677643 
L 106.673637 66.565758 
L 106.825895 66.781058 
L 106.978153 66.754146 
L 107.130411 67.400047 
L 107.434927 67.346222 
L 107.587185 67.776823 
L 107.8917 67.776823 
L 108.043958 68.153599 
L 108.348474 68.207424 
L 108.65299 68.5842 
L 108.805248 68.422724 
L 109.109764 68.880238 
L 109.41428 68.934063 
L 111.089117 69.929827 
L 111.241375 70.414253 
L 112.002665 70.656466 
L 112.154923 71.11398 
L 112.307181 71.167805 
L 112.459439 71.033242 
L 112.611697 71.140892 
L 112.763955 70.952504 
L 112.916213 70.225865 
L 113.068471 70.521904 
L 113.372986 70.494991 
L 113.677502 70.629554 
L 113.82976 70.387341 
L 114.134276 70.387341 
L 114.286534 70.091303 
L 114.743308 70.091303 
L 114.895566 69.902915 
L 115.047824 69.929827 
L 115.200082 70.602641 
L 115.961372 71.167805 
L 116.418145 71.436931 
L 116.570403 71.948269 
L 117.331693 72.190482 
L 117.636209 72.432695 
L 117.940725 72.405783 
L 118.092983 72.432695 
L 118.245241 72.674908 
L 118.397499 72.701821 
L 118.549757 72.567258 
L 118.854273 72.674908 
L 119.006531 73.455372 
L 119.158788 73.509197 
L 119.311046 73.993623 
L 119.463304 74.020536 
L 119.615562 74.182011 
L 120.224594 75.85059 
L 120.52911 76.092803 
L 120.681368 76.657966 
L 120.833626 76.442666 
L 120.985884 76.550316 
L 121.138142 76.819442 
L 121.2904 76.765617 
L 121.594916 76.927092 
L 122.051689 77.680644 
L 122.203947 77.626818 
L 122.508463 78.38037 
L 123.117495 78.595671 
L 123.269753 78.568758 
L 123.422011 78.38037 
L 123.726527 78.595671 
L 123.878785 78.622583 
L 124.031043 78.461108 
L 124.335559 78.864796 
L 124.792333 78.999359 
L 124.94459 78.945534 
L 125.096848 79.107009 
L 125.249106 79.591435 
L 125.553622 79.75291 
L 125.70588 79.806736 
L 126.46717 80.829413 
L 126.619428 80.506462 
L 126.771686 80.479549 
L 127.22846 80.829413 
L 127.380718 81.233101 
L 127.532976 81.152363 
L 127.837491 81.448402 
L 127.989749 81.475314 
L 128.294265 81.879002 
L 128.751039 82.040478 
L 129.207813 82.497991 
L 129.512329 82.471079 
L 129.664587 82.497991 
L 130.121361 82.874767 
L 130.273619 82.847854 
L 130.425877 83.386106 
L 130.578135 83.493756 
L 130.730392 83.816706 
L 131.491682 83.924357 
L 131.64394 84.220395 
L 132.100714 84.193482 
L 132.709746 84.435695 
L 133.014262 84.328045 
L 133.318778 84.731733 
L 133.623293 84.731733 
L 133.927809 84.704821 
L 134.080067 85.000859 
L 134.384583 85.996624 
L 134.536841 85.942798 
L 134.993615 86.346487 
L 135.298131 86.158099 
L 135.450389 86.185011 
L 135.754905 86.534875 
L 136.059421 86.5887 
L 136.211679 86.238837 
L 136.516194 86.346487 
L 136.668452 86.454137 
L 136.82071 86.777088 
L 136.972968 86.750175 
L 137.125226 87.449902 
L 137.582 87.503727 
L 137.886516 87.288426 
L 138.495548 87.826677 
L 138.800064 87.799765 
L 138.952322 87.96124 
L 139.10458 87.369164 
L 139.256838 87.342251 
L 139.561353 87.046213 
L 139.865869 87.046213 
L 140.170385 86.992388 
L 140.779417 87.396076 
L 141.083933 87.584464 
L 141.236191 87.073126 
L 141.388449 87.234601 
L 141.540707 87.046213 
L 141.692965 87.100038 
L 141.997481 87.826677 
L 142.149739 87.772852 
L 142.911028 89.602906 
L 143.215544 89.764381 
L 143.367802 90.410283 
L 143.52006 90.356458 
L 143.672318 89.629819 
L 144.28135 89.764381 
L 144.433608 90.141157 
L 144.585866 90.16807 
L 144.738124 90.49102 
L 145.347155 90.813971 
L 145.499413 91.352222 
L 145.803929 91.352222 
L 146.108445 91.64826 
L 146.412961 93.289926 
L 146.565219 93.101538 
L 146.869735 93.182276 
L 147.021993 92.886238 
L 147.326509 93.101538 
L 147.783283 93.155364 
L 147.93554 92.966976 
L 148.087798 93.182276 
L 148.392314 92.993888 
L 148.69683 93.101538 
L 148.849088 92.940063 
L 149.153604 92.940063 
L 149.305862 93.801265 
L 149.45812 93.774352 
L 149.610378 94.527904 
L 149.914894 94.500991 
L 150.067152 95.093068 
L 150.523926 95.335281 
L 151.132957 95.550581 
L 151.285215 95.819707 
L 151.589731 95.712056 
L 151.741989 95.900444 
L 151.894247 96.411783 
L 152.046505 96.304133 
L 152.198763 96.438695 
L 152.351021 96.196482 
L 152.655537 96.38487 
L 152.960053 97.918886 
L 153.264569 98.241837 
L 153.416827 98.268749 
L 153.721342 98.188012 
L 154.330374 98.537875 
L 154.63489 99.452902 
L 155.39618 99.96424 
L 155.700696 99.668202 
L 156.15747 99.85659 
L 156.309728 99.695115 
L 156.461986 99.722027 
L 156.766501 101.040743 
L 156.918759 101.202218 
L 157.071017 101.552081 
L 157.527791 101.740469 
L 157.984565 102.251808 
L 158.289081 102.305633 
L 158.441339 101.982682 
L 158.745855 102.870796 
L 159.050371 103.032272 
L 159.354887 103.059184 
L 159.507144 102.709321 
L 159.81166 102.655496 
L 159.963918 102.305633 
L 160.268434 102.547846 
L 161.029724 103.086097 
L 161.181982 103.597435 
L 161.33424 103.382135 
L 161.486498 103.624348 
L 161.791014 103.758911 
L 161.943272 103.920386 
L 162.09553 104.754675 
L 162.400045 104.969976 
L 162.552303 105.077626 
L 162.704561 105.508227 
L 162.856819 105.562052 
L 163.009077 106.154128 
L 163.161335 106.046478 
L 163.465851 106.315604 
L 163.770367 106.503992 
L 163.922625 106.719292 
L 164.074883 106.638554 
L 164.379399 107.01533 
L 164.531657 107.042243 
L 164.836173 106.90768 
L 165.140689 106.90768 
L 165.445204 106.880767 
L 165.74972 107.257543 
L 165.901978 107.338281 
L 166.054236 107.688144 
L 166.358752 107.741969 
L 166.663268 108.17257 
L 167.424558 108.468608 
L 167.729074 108.603171 
L 167.881332 108.387871 
L 168.794879 109.356723 
L 169.099395 108.764646 
L 169.251653 108.818471 
L 169.403911 109.787323 
L 169.556169 109.814236 
L 169.708427 109.679673 
L 169.860685 110.3794 
L 170.012943 110.352487 
L 170.165201 110.460137 
L 170.317459 111.106039 
L 170.926491 111.106039 
L 171.231006 111.186776 
L 171.535522 110.944563 
L 171.840038 111.428989 
L 171.992296 111.455902 
L 172.44907 112.370929 
L 172.753586 113.447431 
L 173.058102 113.985682 
L 173.21036 114.012595 
L 173.514876 113.931857 
L 173.667134 114.093333 
L 173.819392 113.851119 
L 173.971649 114.06642 
L 174.276165 113.904945 
L 174.580681 113.904945 
L 174.732939 113.95877 
L 174.885197 113.178306 
L 175.951003 113.770382 
L 176.103261 114.147158 
L 176.255519 113.824207 
L 176.712293 113.985682 
L 176.86455 114.658496 
L 177.473582 114.981447 
L 177.778098 115.22366 
L 179.14842 116.004124 
L 179.300678 116.246337 
L 179.757451 116.165599 
L 179.909709 116.192512 
L 180.061967 115.869561 
L 180.366483 116.219424 
L 180.975515 116.623113 
L 181.127773 116.3809 
L 181.432289 116.70385 
L 181.736805 116.542375 
L 181.889063 116.5962 
L 182.041321 116.434725 
L 182.193579 116.5962 
L 182.345837 116.999889 
L 182.80261 116.892238 
L 183.107126 116.972976 
L 183.259384 117.242102 
L 183.411642 117.188277 
L 183.5639 117.726528 
L 184.020674 117.914916 
L 184.32519 118.237866 
L 184.781964 118.426254 
L 185.238738 119.125981 
L 185.390995 119.152893 
L 185.543253 118.964505 
L 185.695511 118.991418 
L 186.000027 119.233631 
L 186.304543 119.287456 
L 186.456801 119.718057 
L 186.609059 119.771882 
L 186.761317 119.664232 
L 186.913575 119.825707 
L 187.218091 118.749205 
L 187.370349 119.206718 
L 187.827123 119.260543 
L 187.979381 119.448931 
L 188.283896 119.448931 
L 188.436154 119.744969 
L 188.74067 119.825707 
L 189.197444 120.525434 
L 190.110992 120.929122 
L 190.26325 120.606171 
L 190.567766 120.713821 
L 190.720024 120.659996 
L 190.872282 120.121745 
L 191.02454 120.740734 
L 191.329055 120.767647 
L 191.481313 121.00986 
L 191.633571 121.036772 
L 191.938087 121.548111 
L 192.090345 122.005624 
L 192.699377 122.301662 
L 192.851635 122.5977 
L 193.003893 122.624613 
L 193.308409 122.947564 
L 193.460667 122.705351 
L 193.765183 122.705351 
L 194.069698 122.866826 
L 194.221956 122.5977 
L 194.526472 122.759176 
L 194.67873 123.162864 
L 194.983246 123.216689 
L 195.44002 122.49005 
L 195.744536 122.436225 
L 196.20131 122.705351 
L 196.505826 123.728028 
L 196.658084 123.75494 
L 196.810342 123.485815 
L 196.962599 124.131716 
L 197.419373 124.481579 
L 197.723889 123.593465 
L 198.180663 124.400842 
L 198.332921 124.481579 
L 198.637437 124.777617 
L 198.789695 124.831443 
L 198.941953 125.315869 
L 199.094211 125.369694 
L 199.246469 126.257808 
L 199.703243 126.257808 
L 200.160016 126.876797 
L 200.61679 127.065185 
L 201.225822 127.092097 
L 201.530338 127.980212 
L 201.682596 128.141687 
L 201.834854 127.764911 
L 202.291628 127.953299 
L 202.900659 128.087862 
L 203.052917 128.249337 
L 203.205175 128.141687 
L 203.357433 127.845649 
L 203.509691 127.872561 
L 203.814207 128.303162 
L 204.270981 128.249337 
L 204.423239 128.49155 
L 204.575497 128.464638 
L 204.727755 127.980212 
L 205.184529 128.141687 
L 205.79356 128.437725 
L 205.945818 127.522698 
L 206.250334 128.1686 
L 206.402592 128.922151 
L 206.55485 129.002889 
L 206.859366 129.621878 
L 207.011624 130.752205 
L 207.925172 131.021331 
L 208.229688 131.263544 
L 208.381946 131.209718 
L 208.534203 131.559582 
L 208.686461 131.613407 
L 208.990977 132.340046 
L 209.143235 133.147422 
L 209.447751 133.497286 
L 209.752267 134.143187 
L 210.513557 134.439225 
L 210.818073 134.600701 
L 211.122589 134.735263 
L 211.274847 135.058214 
L 211.427104 135.731028 
L 212.188394 135.892503 
L 212.340652 135.811766 
L 212.949684 136.619142 
L 213.101942 136.646055 
L 213.558716 137.157393 
L 214.01549 137.157393 
L 214.167748 137.534169 
L 214.320005 136.969006 
L 214.472263 137.291956 
L 214.624521 136.995918 
L 214.776779 137.022831 
L 214.929037 136.834443 
L 215.081295 136.861355 
L 215.233553 136.646055 
L 215.385811 136.91518 
L 215.690327 136.969006 
L 215.842585 137.130481 
L 215.994843 137.076656 
L 216.147101 137.399606 
L 216.299359 137.291956 
L 216.451617 137.722557 
L 216.603875 137.74947 
L 216.756133 137.587994 
L 216.908391 137.74947 
L 217.060649 137.157393 
L 217.212906 137.130481 
L 217.365164 137.372694 
L 217.974196 137.561082 
L 218.126454 137.910945 
L 218.278712 138.718322 
L 218.43097 138.772147 
L 218.583228 138.637584 
L 219.19226 138.960535 
L 219.344518 139.498786 
L 219.496776 139.525698 
L 219.649034 138.960535 
L 220.105807 139.22966 
L 220.258065 139.848649 
L 220.562581 139.767911 
L 220.714839 139.848649 
L 220.867097 139.714086 
L 221.323871 139.794824 
L 221.628387 140.763676 
L 222.085161 140.736763 
L 222.389677 141.005889 
L 222.541935 140.952064 
L 222.84645 141.947828 
L 223.455482 142.163129 
L 223.759998 142.378429 
L 224.521288 142.647555 
L 224.673546 142.405342 
L 225.13032 142.728293 
L 225.282578 142.028566 
L 225.434836 142.001654 
L 226.043867 142.432254 
L 226.196125 143.051243 
L 226.348383 142.943593 
L 226.500641 144.047008 
L 226.652899 144.235396 
L 226.805157 144.800559 
L 227.109673 144.988947 
L 227.261931 145.01586 
L 227.718705 145.500286 
L 227.870963 145.311898 
L 228.023221 145.446461 
L 228.175479 145.903974 
L 228.327737 145.957799 
L 228.479995 146.3884 
L 228.78451 146.442225 
L 229.089026 146.038537 
L 229.393542 146.200012 
L 229.5458 146.49605 
L 229.698058 146.469138 
L 230.002574 147.088127 
L 230.30709 147.249602 
L 230.611606 147.464903 
L 231.06838 147.707116 
L 231.220638 148.272279 
L 231.525153 148.218454 
L 231.829669 148.59523 
L 231.981927 148.541405 
L 232.134185 148.299192 
L 232.438701 148.48758 
L 232.743217 148.891268 
L 233.047733 149.025831 
L 233.199991 148.649055 
L 233.352249 148.70288 
L 233.504507 148.379929 
L 233.656765 148.406842 
L 233.961281 149.725557 
L 234.570312 149.940858 
L 234.72257 150.183071 
L 234.874828 150.209983 
L 235.027086 150.506021 
L 235.331602 150.667497 
L 235.636118 150.721322 
L 235.940634 150.721322 
L 236.24515 151.098098 
L 236.397408 151.12501 
L 237.00644 151.905474 
L 237.158698 151.474873 
L 237.463213 151.447961 
L 237.919987 151.582524 
L 238.376761 152.659026 
L 239.138051 152.874326 
L 239.442567 153.358752 
L 240.356114 153.654791 
L 240.508372 153.977741 
L 240.66063 154.59673 
L 240.965146 154.515992 
L 241.269662 154.865856 
L 241.42192 154.946593 
L 241.878694 155.915445 
L 242.18321 155.996183 
L 242.335468 155.834708 
L 242.487726 155.86162 
L 242.639984 156.184571 
L 242.792242 156.103833 
L 243.096757 156.346046 
L 243.249015 156.319134 
L 243.401273 156.668997 
L 243.705789 156.749735 
L 244.010305 157.072685 
L 244.162563 156.938122 
L 244.619337 157.664761 
L 244.771595 157.584024 
L 244.923853 158.1761 
L 245.380627 158.418313 
L 245.685143 158.902739 
L 245.989658 158.983477 
L 246.141916 159.575553 
L 246.294174 159.279515 
L 246.750948 159.683203 
L 246.903206 159.898504 
L 247.207722 160.813531 
L 247.35998 160.867356 
L 247.512238 161.97077 
L 247.816754 162.024596 
L 247.969012 161.674732 
L 248.12127 161.836208 
L 248.273528 161.728557 
L 249.034817 162.105333 
L 249.187075 162.078421 
L 249.339333 161.836208 
L 249.643849 161.997683 
L 249.948365 162.455196 
L 250.100623 162.482109 
L 250.405139 162.697409 
L 250.557397 162.616672 
L 251.318687 163.773912 
L 251.470945 163.666262 
L 251.623203 164.150688 
L 251.77546 164.123775 
L 251.927718 163.935387 
L 252.079976 164.608201 
L 252.232234 164.715851 
L 252.384492 165.44249 
L 252.689008 165.603966 
L 252.841266 165.388665 
L 252.993524 165.415578 
L 253.29804 165.846179 
L 253.450298 165.980741 
L 253.907072 166.653555 
L 254.516104 166.868856 
L 254.668361 166.411342 
L 254.820619 167.057244 
L 254.972877 166.680468 
L 255.277393 166.734293 
L 255.581909 167.75697 
L 256.038683 167.703145 
L 256.190941 167.918445 
L 256.343199 167.810795 
L 256.952231 168.349046 
L 257.104489 168.214484 
L 257.409005 168.375959 
L 257.71352 167.86462 
L 257.865778 167.891533 
L 258.170294 168.537434 
L 258.47481 168.833472 
L 258.627068 168.860385 
L 258.779326 169.048773 
L 259.2361 170.206013 
L 259.540616 170.582789 
L 260.149648 170.582789 
L 260.454163 171.282515 
L 260.606421 171.067215 
L 261.063195 171.094127 
L 261.215453 171.793854 
L 261.824485 172.27828 
L 261.976743 173.058744 
L 262.738033 173.247132 
L 262.890291 173.65082 
L 263.194806 173.812295 
L 263.347064 173.516257 
L 263.499322 173.596995 
L 263.65158 173.839208 
L 263.803838 173.677733 
L 264.108354 174.135246 
L 264.260612 174.027596 
L 264.565128 174.242896 
L 264.869644 174.000683 
L 265.17416 173.919946 
L 265.783192 174.054508 
L 265.93545 174.215984 
L 266.087707 174.754235 
L 266.239965 174.781147 
L 266.392223 174.404372 
L 267.305771 175.211748 
L 267.762545 174.619672 
L 267.914803 174.646585 
L 268.067061 174.834972 
L 268.219319 174.727322 
L 268.523835 175.427049 
L 269.285124 175.9653 
L 269.58964 175.265573 
L 269.741898 175.292486 
L 269.894156 174.91571 
L 270.35093 175.02336 
L 270.503188 174.996448 
L 271.264478 175.911475 
L 271.416736 176.611201 
L 271.568994 176.503551 
L 271.721252 177.01489 
L 273.091573 177.310928 
L 273.548347 178.441255 
L 273.700605 178.737293 
L 274.005121 178.252867 
L 274.309637 178.414342 
L 274.461895 178.844943 
L 275.070926 179.114069 
L 275.223184 179.087156 
L 275.375442 179.625408 
L 275.5277 179.598495 
L 275.984474 180.325134 
L 276.136732 180.540434 
L 276.28899 180.513522 
L 276.593506 180.674997 
L 276.898022 180.728822 
L 277.05028 180.782647 
L 277.354796 180.352047 
L 277.659311 180.997948 
L 277.811569 180.971035 
L 277.963827 181.186336 
L 278.116085 180.836473 
L 278.420601 180.782647 
L 278.572859 180.70191 
L 279.181891 181.132511 
L 279.334149 181.051773 
L 279.943181 181.267073 
L 280.095439 180.70191 
L 280.552212 181.401636 
L 281.008986 182.262838 
L 281.161244 182.289751 
L 281.46576 182.531964 
L 281.618018 182.424313 
L 282.379308 182.881827 
L 282.531566 182.908739 
L 282.683824 183.420078 
L 282.836082 183.366253 
L 282.98834 183.500816 
L 283.140598 183.01639 
L 283.292856 183.043302 
L 283.445113 182.424313 
L 283.749629 182.397401 
L 283.901887 182.774177 
L 284.358661 182.935652 
L 284.510919 183.070215 
L 284.663177 183.420078 
L 284.967693 183.473903 
L 286.033499 184.469668 
L 286.185757 185.007919 
L 286.490272 185.088656 
L 286.794788 184.738793 
L 286.947046 184.765706 
L 287.099304 185.330869 
L 287.251562 185.115569 
L 287.708336 185.519257 
L 287.860594 185.54617 
L 288.012852 185.196307 
L 288.16511 185.330869 
L 288.317368 185.303957 
L 288.469626 185.411607 
L 288.621884 185.277044 
L 288.9264 185.922946 
L 289.078658 185.465432 
L 289.230915 185.411607 
L 289.687689 184.38893 
L 289.839947 184.415843 
L 289.992205 184.577318 
L 290.144463 185.034831 
L 290.448979 184.873356 
L 290.905753 185.196307 
L 291.210269 185.815296 
L 291.514785 186.999448 
L 291.667043 187.403136 
L 292.276074 187.537699 
L 292.428332 187.134011 
L 292.885106 187.699174 
L 293.189622 187.779912 
L 293.34188 187.430049 
L 293.494138 187.456961 
L 293.646396 188.022125 
L 293.798654 187.403136 
L 294.407686 188.345076 
L 294.559944 188.452726 
L 294.712202 188.856414 
L 295.016717 188.990977 
L 295.778007 190.524993 
L 295.930265 190.28278 
L 296.082523 190.363518 
L 296.234781 190.713381 
L 296.387039 190.578818 
L 296.539297 190.121305 
L 297.300587 190.578818 
L 297.452845 190.928681 
L 297.605103 190.901769 
L 297.75736 191.170894 
L 297.909618 190.713381 
L 298.214134 190.713381 
L 299.432198 191.466932 
L 299.736714 191.493845 
L 299.888972 191.601495 
L 300.04123 191.386195 
L 300.193488 191.870621 
L 300.345746 191.843708 
L 300.650261 192.112834 
L 300.954777 192.166659 
L 301.107035 191.359282 
L 301.411551 191.413107 
L 301.563809 190.955594 
L 302.172841 191.090157 
L 302.477357 191.816796 
L 302.934131 191.978271 
L 303.086389 192.328134 
L 303.238647 192.301222 
L 303.390905 191.682233 
L 303.847678 192.381959 
L 303.999936 192.301222 
L 304.152194 192.355047 
L 304.761226 194.400401 
L 304.913484 194.373488 
L 305.065742 194.508051 
L 305.370258 195.880592 
L 305.522516 195.746029 
L 305.674774 195.826767 
L 305.97929 196.607231 
L 306.131548 196.903269 
L 306.283806 196.822531 
L 306.436063 196.957094 
L 306.588321 197.629908 
L 307.349611 197.791383 
L 307.501869 198.060509 
L 307.958643 198.060509 
L 308.415417 199.137011 
L 309.024449 199.352311 
L 309.176707 199.836737 
L 309.63348 199.944388 
L 309.785738 199.621437 
L 310.090254 199.809825 
L 310.39477 199.917475 
L 310.547028 199.352311 
L 310.699286 199.459962 
L 311.003802 199.944388 
L 311.308318 199.890563 
L 311.460576 199.836737 
L 311.612834 200.132776 
L 312.069608 200.186601 
L 312.374123 200.590289 
L 313.439929 201.074715 
L 314.048961 202.339605 
L 314.201219 202.151217 
L 314.353477 201.639879 
L 314.505735 202.231955 
L 314.657993 201.989742 
L 314.810251 202.366518 
L 314.962509 202.39343 
L 315.114766 202.07048 
L 315.267024 202.366518 
L 315.419282 202.39343 
L 315.723798 202.716381 
L 316.180572 202.850944 
L 316.33283 203.496845 
L 316.637346 203.685233 
L 316.789604 203.65832 
L 316.941862 203.846708 
L 317.09412 204.331134 
L 317.398636 204.519522 
L 317.703152 205.246161 
L 318.007667 205.488374 
L 318.159925 205.542199 
L 318.312183 205.9728 
L 318.768957 205.9728 
L 319.225731 205.730587 
L 319.530247 205.918975 
L 319.682505 205.784412 
L 319.834763 206.295751 
L 319.987021 206.241926 
L 320.443795 206.834002 
L 320.596053 207.076215 
L 320.748311 206.457226 
L 321.205084 207.910504 
L 321.357342 207.856679 
L 321.661858 208.583318 
L 321.814116 208.610231 
L 322.118632 208.987007 
L 322.727664 209.417608 
L 322.879922 209.902034 
L 323.336696 209.902034 
L 323.641212 210.655585 
L 323.945727 210.70941 
L 324.250243 211.140011 
L 325.316049 212.055038 
L 325.468307 211.9743 
L 325.772823 212.566377 
L 325.925081 212.028126 
L 326.838628 212.189601 
L 326.990886 212.566377 
L 327.143144 212.593289 
L 327.44766 212.512552 
L 327.752176 212.996978 
L 327.904434 212.647114 
L 328.056692 212.674027 
L 328.20895 212.970065 
L 328.665724 212.324164 
L 328.817982 212.781677 
L 328.97024 212.835502 
L 329.274756 212.162688 
L 329.427014 212.216513 
L 329.579271 212.028126 
L 329.731529 212.081951 
L 330.188303 212.700939 
L 330.340561 212.512552 
L 330.645077 213.427578 
L 330.949593 213.615966 
L 331.101851 213.858179 
L 331.558625 213.885092 
L 332.015399 214.557906 
L 332.319915 214.827031 
L 332.472172 214.961594 
L 332.776688 214.827031 
L 333.081204 215.042332 
L 333.233462 214.961594 
L 333.38572 214.07348 
L 333.690236 214.611731 
L 333.842494 214.692469 
L 333.994752 215.23072 
L 334.451526 215.311457 
L 334.756042 214.907769 
L 335.060558 214.853944 
L 335.212815 215.311457 
L 335.365073 215.203807 
L 336.126363 215.526758 
L 336.278621 215.957359 
L 336.583137 215.903534 
L 336.735395 216.441785 
L 337.039911 216.522522 
L 337.192169 216.253397 
L 337.344427 216.683998 
L 337.496685 216.737823 
L 337.648943 216.953123 
L 337.801201 216.899298 
L 337.953459 217.679762 
L 338.105716 217.733587 
L 338.257974 218.218013 
L 338.714748 218.110363 
L 338.867006 217.814325 
L 339.171522 218.271839 
L 339.476038 218.271839 
L 339.628296 218.540964 
L 339.780554 218.164188 
L 340.694102 219.106128 
L 340.84636 219.671292 
L 341.303133 219.052303 
L 341.607649 218.91774 
L 341.912165 219.213778 
L 342.368939 219.240691 
L 342.673455 219.455991 
L 342.825713 219.482904 
L 342.977971 219.805854 
L 343.130229 219.832767 
L 343.282487 220.101892 
L 343.434745 219.994242 
L 343.587003 220.317193 
L 343.891518 220.317193 
L 344.043776 221.097657 
L 344.348292 221.259132 
L 344.50055 221.474433 
L 344.805066 221.528258 
L 345.109582 221.635908 
L 345.414098 222.254897 
L 345.718614 222.201072 
L 345.870872 222.820061 
L 346.175388 222.927711 
L 346.784419 223.815825 
L 347.545709 223.977301 
L 347.697967 223.681262 
L 347.850225 223.65435 
L 348.002483 224.354076 
L 348.611515 224.488639 
L 348.763773 224.461727 
L 348.916031 224.757765 
L 349.372805 224.838502 
L 349.67732 225.376754 
L 349.829578 225.403666 
L 350.134094 226.157218 
L 350.743126 226.453256 
L 351.047642 225.780442 
L 351.1999 225.941917 
L 351.504416 225.807354 
L 352.417964 227.072245 
L 352.722479 227.018419 
L 352.874737 227.045332 
L 353.636027 228.068009 
L 353.940543 228.121834 
L 354.245059 228.041097 
L 354.549575 228.310222 
L 354.701833 229.117599 
L 354.854091 228.552435 
L 355.006349 228.848473 
L 355.158607 228.875386 
L 355.463122 229.171424 
L 355.61538 229.117599 
L 355.767638 229.225249 
L 355.919896 229.521287 
L 356.224412 229.575112 
L 356.681186 230.247926 
L 356.833444 230.866915 
L 357.13796 231.02839 
L 357.290218 231.512816 
L 357.442476 231.566642 
L 357.594734 231.378254 
L 358.508281 231.808855 
L 358.660539 231.458991 
L 358.965055 231.889592 
L 359.117313 231.02839 
L 359.269571 231.243691 
L 359.421829 231.189866 
L 359.574087 231.943417 
L 359.726345 231.835767 
L 360.030861 232.239455 
L 360.183119 232.212543 
L 360.487635 232.562406 
L 360.639893 232.696969 
L 360.792151 233.289045 
L 360.944409 233.046832 
L 361.401182 233.800384 
L 362.162472 234.042597 
L 362.466988 234.661585 
L 362.619246 234.876886 
L 363.07602 234.796148 
L 363.228278 235.092186 
L 363.685052 235.280574 
L 363.989568 235.522787 
L 364.141825 236.276339 
L 364.294083 236.249426 
L 364.446341 236.653115 
L 364.903115 236.81459 
L 365.055373 236.518552 
L 365.359889 236.545464 
L 365.664405 236.518552 
L 366.273437 236.653115 
L 366.425695 236.141776 
L 366.577953 236.222514 
L 366.882469 236.680027 
L 367.186984 236.92224 
L 367.339242 237.056803 
L 367.4915 237.02989 
L 367.796016 237.487404 
L 367.948274 237.568142 
L 368.100532 238.052568 
L 368.25279 237.837267 
L 368.405048 237.891092 
L 368.709564 238.456256 
L 368.861822 238.644644 
L 369.318596 240.205572 
L 369.623112 240.28631 
L 369.77537 240.097922 
L 370.536659 240.340135 
L 370.688917 240.636173 
L 370.841175 240.582348 
L 370.993433 240.663086 
L 371.145691 241.039861 
L 371.602465 241.228249 
L 371.906981 241.578113 
L 372.211497 241.308987 
L 372.972786 241.712675 
L 373.42956 241.874151 
L 373.581818 242.116364 
L 373.581818 242.116364 
" style="fill:none;stroke:#1f77b4;stroke-linecap:square;stroke-width:1.5;"/>
   </g>
   <g id="patch_3">
    <path d="M 54 252 
L 54 34.56 
" style="fill:none;stroke:#000000;stroke-linecap:square;stroke-linejoin:miter;stroke-width:0.8;"/>
   </g>
   <g id="patch_4">
    <path d="M 388.8 252 
L 388.8 34.56 
" style="fill:none;stroke:#000000;stroke-linecap:square;stroke-linejoin:miter;stroke-width:0.8;"/>
   </g>
   <g id="patch_5">
    <path d="M 54 252 
L 388.8 252 
" style="fill:none;stroke:#000000;stroke-linecap:square;stroke-linejoin:miter;stroke-width:0.8;"/>
   </g>
   <g id="patch_6">
    <path d="M 54 34.56 
L 388.8 34.56 
" style="fill:none;stroke:#000000;stroke-linecap:square;stroke-linejoin:miter;stroke-width:0.8;"/>
   </g>
   <g id="legend_1">
    <g id="patch_7">
     <path d="M 280.7375 57.238125 
L 381.8 57.238125 
Q 383.8 57.238125 383.8 55.238125 
L 383.8 41.56 
Q 383.8 39.56 381.8 39.56 
L 280.7375 39.56 
Q 278.7375 39.56 278.7375 41.56 
L 278.7375 55.238125 
Q 278.7375 57.238125 280.7375 57.238125 
z
" style="fill:#ffffff;opacity:0.8;stroke:#cccccc;stroke-linejoin:miter;"/>
    </g>
    <g id="line2d_10">
     <path d="M 282.7375 47.658437 
L 302.7375 47.658437 
" style="fill:none;stroke:#1f77b4;stroke-linecap:square;stroke-width:1.5;"/>
    </g>
    <g id="line2d_11"/>
    <g id="text_10">
     <!-- sonar reading -->
     <g transform="translate(310.7375 51.158437)scale(0.1 -0.1)">
      <defs>
       <path d="M 44.28125 53.078125 
L 44.28125 44.578125 
Q 40.484375 46.53125 36.375 47.5 
Q 32.28125 48.484375 27.875 48.484375 
Q 21.1875 48.484375 17.84375 46.4375 
Q 14.5 44.390625 14.5 40.28125 
Q 14.5 37.15625 16.890625 35.375 
Q 19.28125 33.59375 26.515625 31.984375 
L 29.59375 31.296875 
Q 39.15625 29.25 43.1875 25.515625 
Q 47.21875 21.78125 47.21875 15.09375 
Q 47.21875 7.46875 41.1875 3.015625 
Q 35.15625 -1.421875 24.609375 -1.421875 
Q 20.21875 -1.421875 15.453125 -0.5625 
Q 10.6875 0.296875 5.421875 2 
L 5.421875 11.28125 
Q 10.40625 8.6875 15.234375 7.390625 
Q 20.0625 6.109375 24.8125 6.109375 
Q 31.15625 6.109375 34.5625 8.28125 
Q 37.984375 10.453125 37.984375 14.40625 
Q 37.984375 18.0625 35.515625 20.015625 
Q 33.0625 21.96875 24.703125 23.78125 
L 21.578125 24.515625 
Q 13.234375 26.265625 9.515625 29.90625 
Q 5.8125 33.546875 5.8125 39.890625 
Q 5.8125 47.609375 11.28125 51.796875 
Q 16.75 56 26.8125 56 
Q 31.78125 56 36.171875 55.265625 
Q 40.578125 54.546875 44.28125 53.078125 
z
" id="DejaVuSans-115"/>
       <path d="M 30.609375 48.390625 
Q 23.390625 48.390625 19.1875 42.75 
Q 14.984375 37.109375 14.984375 27.296875 
Q 14.984375 17.484375 19.15625 11.84375 
Q 23.34375 6.203125 30.609375 6.203125 
Q 37.796875 6.203125 41.984375 11.859375 
Q 46.1875 17.53125 46.1875 27.296875 
Q 46.1875 37.015625 41.984375 42.703125 
Q 37.796875 48.390625 30.609375 48.390625 
z
M 30.609375 56 
Q 42.328125 56 49.015625 48.375 
Q 55.71875 40.765625 55.71875 27.296875 
Q 55.71875 13.875 49.015625 6.21875 
Q 42.328125 -1.421875 30.609375 -1.421875 
Q 18.84375 -1.421875 12.171875 6.21875 
Q 5.515625 13.875 5.515625 27.296875 
Q 5.515625 40.765625 12.171875 48.375 
Q 18.84375 56 30.609375 56 
z
" id="DejaVuSans-111"/>
       <path d="M 54.890625 33.015625 
L 54.890625 0 
L 45.90625 0 
L 45.90625 32.71875 
Q 45.90625 40.484375 42.875 44.328125 
Q 39.84375 48.1875 33.796875 48.1875 
Q 26.515625 48.1875 22.3125 43.546875 
Q 18.109375 38.921875 18.109375 30.90625 
L 18.109375 0 
L 9.078125 0 
L 9.078125 54.6875 
L 18.109375 54.6875 
L 18.109375 46.1875 
Q 21.34375 51.125 25.703125 53.5625 
Q 30.078125 56 35.796875 56 
Q 45.21875 56 50.046875 50.171875 
Q 54.890625 44.34375 54.890625 33.015625 
z
" id="DejaVuSans-110"/>
       <path d="M 34.28125 27.484375 
Q 23.390625 27.484375 19.1875 25 
Q 14.984375 22.515625 14.984375 16.5 
Q 14.984375 11.71875 18.140625 8.90625 
Q 21.296875 6.109375 26.703125 6.109375 
Q 34.1875 6.109375 38.703125 11.40625 
Q 43.21875 16.703125 43.21875 25.484375 
L 43.21875 27.484375 
z
M 52.203125 31.203125 
L 52.203125 0 
L 43.21875 0 
L 43.21875 8.296875 
Q 40.140625 3.328125 35.546875 0.953125 
Q 30.953125 -1.421875 24.3125 -1.421875 
Q 15.921875 -1.421875 10.953125 3.296875 
Q 6 8.015625 6 15.921875 
Q 6 25.140625 12.171875 29.828125 
Q 18.359375 34.515625 30.609375 34.515625 
L 43.21875 34.515625 
L 43.21875 35.40625 
Q 43.21875 41.609375 39.140625 45 
Q 35.0625 48.390625 27.6875 48.390625 
Q 23 48.390625 18.546875 47.265625 
Q 14.109375 46.140625 10.015625 43.890625 
L 10.015625 52.203125 
Q 14.9375 54.109375 19.578125 55.046875 
Q 24.21875 56 28.609375 56 
Q 40.484375 56 46.34375 49.84375 
Q 52.203125 43.703125 52.203125 31.203125 
z
" id="DejaVuSans-97"/>
       <path d="M 41.109375 46.296875 
Q 39.59375 47.171875 37.8125 47.578125 
Q 36.03125 48 33.890625 48 
Q 26.265625 48 22.1875 43.046875 
Q 18.109375 38.09375 18.109375 28.8125 
L 18.109375 0 
L 9.078125 0 
L 9.078125 54.6875 
L 18.109375 54.6875 
L 18.109375 46.1875 
Q 20.953125 51.171875 25.484375 53.578125 
Q 30.03125 56 36.53125 56 
Q 37.453125 56 38.578125 55.875 
Q 39.703125 55.765625 41.0625 55.515625 
z
" id="DejaVuSans-114"/>
       <path id="DejaVuSans-32"/>
       <path d="M 9.421875 54.6875 
L 18.40625 54.6875 
L 18.40625 0 
L 9.421875 0 
z
M 9.421875 75.984375 
L 18.40625 75.984375 
L 18.40625 64.59375 
L 9.421875 64.59375 
z
" id="DejaVuSans-105"/>
       <path d="M 45.40625 27.984375 
Q 45.40625 37.75 41.375 43.109375 
Q 37.359375 48.484375 30.078125 48.484375 
Q 22.859375 48.484375 18.828125 43.109375 
Q 14.796875 37.75 14.796875 27.984375 
Q 14.796875 18.265625 18.828125 12.890625 
Q 22.859375 7.515625 30.078125 7.515625 
Q 37.359375 7.515625 41.375 12.890625 
Q 45.40625 18.265625 45.40625 27.984375 
z
M 54.390625 6.78125 
Q 54.390625 -7.171875 48.1875 -13.984375 
Q 42 -20.796875 29.203125 -20.796875 
Q 24.46875 -20.796875 20.265625 -20.09375 
Q 16.0625 -19.390625 12.109375 -17.921875 
L 12.109375 -9.1875 
Q 16.0625 -11.328125 19.921875 -12.34375 
Q 23.78125 -13.375 27.78125 -13.375 
Q 36.625 -13.375 41.015625 -8.765625 
Q 45.40625 -4.15625 45.40625 5.171875 
L 45.40625 9.625 
Q 42.625 4.78125 38.28125 2.390625 
Q 33.9375 0 27.875 0 
Q 17.828125 0 11.671875 7.65625 
Q 5.515625 15.328125 5.515625 27.984375 
Q 5.515625 40.671875 11.671875 48.328125 
Q 17.828125 56 27.875 56 
Q 33.9375 56 38.28125 53.609375 
Q 42.625 51.21875 45.40625 46.390625 
L 45.40625 54.6875 
L 54.390625 54.6875 
z
" id="DejaVuSans-103"/>
      </defs>
      <use xlink:href="#DejaVuSans-115"/>
      <use x="52.099609" xlink:href="#DejaVuSans-111"/>
      <use x="113.28125" xlink:href="#DejaVuSans-110"/>
      <use x="176.660156" xlink:href="#DejaVuSans-97"/>
      <use x="237.939453" xlink:href="#DejaVuSans-114"/>
      <use x="279.052734" xlink:href="#DejaVuSans-32"/>
      <use x="310.839844" xlink:href="#DejaVuSans-114"/>
      <use x="349.703125" xlink:href="#DejaVuSans-101"/>
      <use x="411.226562" xlink:href="#DejaVuSans-97"/>
      <use x="472.505859" xlink:href="#DejaVuSans-100"/>
      <use x="535.982422" xlink:href="#DejaVuSans-105"/>
      <use x="563.765625" xlink:href="#DejaVuSans-110"/>
      <use x="627.144531" xlink:href="#DejaVuSans-103"/>
     </g>
    </g>
   </g>
  </g>
 </g>
 <defs>
  <clipPath id="pbaf81f5f69">
   <rect height="217.44" width="334.8" x="54" y="34.56"/>
  </clipPath>
 </defs>
</svg>
